<?xml version="1.0" encoding="utf-8"?>
<!-- Generator: Adobe Illustrator 24.1.2, SVG Export Plug-In . SVG Version: 6.00 Build 0)  -->
<svg version="1.1" xmlns="http://www.w3.org/2000/svg" xmlns:xlink="http://www.w3.org/1999/xlink" x="0px" y="0px"
	 viewBox="0 0 1224 792" style="enable-background:new 0 0 1224 792;" xml:space="preserve">
<style type="text/css">
	.st0{fill:#FFFFFF;}
</style>
<g id="Layer_2_xA0_Image_1_">
	<g>
		<path class="st0" d="M846.9,793.2c-281.3,0-562.6,0-843.8,0c0-264,0-528,0-792c408,0,816,0,1224,0c0,264,0,528,0,792
			c-28.5,0-57,0-85.4,0c0.5-4,0.9-7.9,1.5-11.9c0.8-5.4,0.9-10.8,0.6-16.3c-0.4-7.6-1.8-15-5-21.8c-3.2-6.8-5.8-13.9-8.1-21
			c-5-15.8-12.9-29.9-24-42.2c-2.5-2.7-4.9-5.5-7.2-8.4c-4-5-8.5-9.6-13.3-13.9c-2.6-2.3-5.2-4.8-7.7-7.2c-3.6-3.5-7.5-6.5-11.8-9
			c-2.5-1.5-5-2.9-7.4-4.4c-3.8-2.3-7.9-4.2-12.2-5.6c-2.9-1-5.8-2-8.3-3.7c-6.7-4.4-14.7-6.4-21.3-10.9c-0.3-0.2-0.6-0.3-0.9-0.4
			c-4.9-1.4-9.8-3.1-14.8-4c-6.1-1.1-12.3-2.2-18.6-2c-0.7,0-1.4-0.4-2.8-0.8c8.2-7.9,13-16.8,12.8-27.9c1.1-0.6,1.9-1.1,2.7-1.5
			c7-3.1,13-7.6,17.7-13.6c5.9-7.6,7.9-15.9,4.7-25.2c-0.4-1-0.9-2-1.3-3c0.9-1.9,1.8-3.6,2.6-5.3c0.8-1.7,1.4-3.6,2.2-5.3
			c0.8-1.6,0.5-3.7,2.3-5.2c2.7,3.7,6.4,5.7,10.5,4.7c4.3-1.1,8.4-1.1,12.7-0.7c0.2,0,0.3,0,0.5,0c3.1,0,5.1-1.7,6.1-4.5
			c0.5-1.5,0.7-3.1,1.1-4.6c0.3-1,0.8-2.1,1.5-2.9c3.1-3.7,4.6-8,5.2-12.7c0.2-1.7-0.4-3.4-0.7-5.1c-0.2-1.1-1-2.1-1-3.2
			c0-3-1-5.6-2.8-7.8c0.2-0.9,0.2-1.5,0.4-2.1c1.2-4.4,0.5-8.6-1.8-12.5c-1.7-2.9-3.7-5.6-3.5-9.2c0-0.3-0.2-0.7-0.4-0.9
			c-0.7-0.6-1.3-1.6-2.1-1.7c-0.7-0.1-1.5,0.7-2.4,1.1c-2.8-5.7-7.6-8.9-13.5-10.6c0.8-3.8,0.8-3.9,3.7-3.9c1.9-0.1,3.8,0,4.8,0
			c2.5,0.9,2.5,3.4,4.5,3.7c0-3.3,0-6.4,0-9.8c-1-0.1-2.2,0-3.2-0.4c-1-0.4-1.9-1.1-2.9-1.7c-2.3-1.2-4.6-1.2-6.7,0.4
			c-0.5,0.4-0.9,1.4-1.9,0.8c0.5-4.4,4.7-4.5,7.6-6.3c-2.5-2.7-5.6-1.4-8.5-1.6c0.2-1.6,0.3-3,0.4-4.2c-1.2-0.7-2.3-1.1-3-1.8
			c-2.5-2.6-5.5-4.4-8.9-5.5c-0.6-0.2-1.3-0.5-1.6-1c-1.8-2.6-3.5-5.2-5.4-8c0.8-0.9,1.4-1.7,2.1-2.3c2.3-1.8,4.9-3,7.6-3.9
			c3.9-1.3,7.8-2.8,11.7-4.3c2.4-0.9,4.5-2.3,6.5-4c4.3-3.7,8.1-7.8,11.4-12.3c0.4-0.6,0.7-1.5,2.1-0.8c0,1.1,0,2.4,0,3.6
			c-0.2,7.2,2.5,13.4,6.6,19.1c0.9,1.3,2.2,2.3,3.6,3.1c3,1.8,6.2,3.1,9.8,3.5c3.3,0.4,6.6,1.1,10,0.6c7.2-1.1,14-3.2,20.4-6.8
			c5.6-3.2,10.4-7.5,13.7-13.1c3.3-5.6,4.5-11.9,5.2-18.3c0.4-3.8,0.2-7.7,0-11.5c-0.4-7.8-2.3-15.2-6.9-21.6
			c-2.2-3.1-4.1-6.5-5.4-10.1c-1.1-3.1-2.9-5.7-5.4-7.8c-0.7-0.6-1.6-1.2-2.1-1.9c-4.1-5.2-9.3-8.7-15.2-11.3c-2.3-1-4.6-2.1-7-3.1
			c-2.5-1-5.1-1.9-7.6-3c-2.5-1.1-5.1-1.8-7.9-1.9c-7.7-0.2-15.3-0.5-23,0.8c-3.5,0.6-6.9,1.1-10.2,2.5c-4.3,1.8-8.8,2.8-13.5,3.1
			c-3.7,0.2-7.2,1.4-10.6,2.8c-2.9,1.2-4.9,3-4.9,6.4c0,0.3-0.3,0.5-0.6,1c-3.1,2.1-6.6,4.2-9.8,6.5c-3.3,2.5-6.9,4.8-9.7,7.8
			c-9.7,10.6-20,20.8-26.4,33.9c-0.1,0.1-0.2,0.3-0.2,0.4c-3.8,5.2-6.1,11.2-8.2,17.2c-1.2,3.4-2.1,6.7-0.7,10.1c-1,2.2-2,4.1-3,6.2
			c-0.6-0.4-1-0.6-1.4-0.9c-1.4-0.9-2.8-0.7-4,0.4c-1.3,1.1-2,2.5-1.7,4.2c0.2,1.1,1,2,2.3,2.1c1.4,0.2,2.8,0.2,4.4,0.3
			c0.3,1.4,0.5,2.7,0.9,3.9c0.5,1.8,1.3,3.5,2.9,4.2c3.2,1.4,6.1,3.3,9.1,5.1c1,0.6,2.4,0.9,3.7,0.9c1.9,0,3.9,0,5.7-0.5
			c2.8-0.8,5-0.2,7.2,1.8c0.1,1,0.3,2.1,0.4,3.2c0.4,3.3,2.5,5.1,5.6,5.8c1.4,0.3,2.8,0.5,4.2,0.7c0.4,0.5,0.7,0.8,0.9,1.3
			c1.5,3.2,4.2,4.2,7.5,4.2c1.7,0,3.5-0.4,5.2-0.7c0.9-0.2,1.8-0.5,2.6-0.7c1.7,2.1,2.9,4.3,4.8,5.7c3.5,2.5,7.2,4.6,11,6.6
			c1.3,0.7,3.1,0.6,4.7,0.7c1.3,0.1,2.6-0.1,3.8,0c1.7,0.1,2.7,1.4,2.1,3c-1,2.7-1.5,5.5-3.7,7.7c-1,0.9-1.6,2.4-1.9,3.8
			c-0.5,2.2-0.6,4.4-0.8,6.6c-0.1,1.9-0.1,3.7-0.2,6.8c-1.2-2.2-1.9-3.5-2.5-4.7c-5.4-9.9-12.7-18.1-22.8-23.3
			c-15.2-7.8-30.2-7-44.7,2.1c-7.5,4.7-13,11.3-17.2,19c-11.4,21.1-10.1,48.6,3.4,68.5c5.8,8.5,13.2,15.2,22.7,19.3
			c14.1,6.1,27.7,5.1,40.9-2.8c4-2.4,7.4-5.5,10.6-8.9c0.8-0.9,1.8-1.7,2.7-2.6c2.1,3.3,2.7,5,2,8.3c-0.9,4.8-2.4,9.3-6.1,12.8
			c-1.3,1.2-2.3,2.7-3.6,3.9c-5.1,4.6-11,7.8-17.6,9.5c-3.3,0.9-6.8,1.8-10.4,1c-1-0.2-2.2,0.2-3.3,0.5c-1,0.3-1.7,1-1.6,2.1
			c0,0.9,0.9,1.9,1.9,1.8c3.5-0.2,7,0.7,10.5-0.4c0.9-0.3,2.1,0,3.2,0c0.1,0.9,0.4,1.6,0.3,2.2c-0.1,1.1-0.2,2.2-0.4,3.3
			c-0.8,3.6-2.3,7-4.4,10.1c-3.5,5.3-8.1,9.4-13.4,12.9c-5.4,3.5-11.2,6.1-17.3,8.2c-12.8,4.2-25.9,5.6-39.3,5
			c-19.4-0.9-37.6-5.4-53.8-16.6c-4.5-3.1-8.6-6.7-11.9-11c-3.4-4.4-5.6-9.3-6.5-14.8c-0.2-0.9,0-1.8,0-2.9c1-0.2,1.8-0.3,2.6-0.4
			c5.1-0.7,10.1-1.5,14.9-3.6c1-0.4,2-0.9,2.9-1.6c0.8-0.6,1-1.6,0.6-2.6c-0.4-1-1.3-1.4-2.3-1.3c-0.8,0.1-1.5,0.5-2.2,0.7
			c-1.9,0.7-3.9,1.6-5.8,2.1c-5.6,1.6-11.3,2.1-17.1,2.2c-3.9,0.1-7.7-0.3-11.2-2.2c-7.8-4.2-13.5-10.6-17.9-18.2
			c-0.8-1.4-1.7-2.7-2.5-4c-0.5-0.8-1.2-1.5-1.6-2.4c-0.4-0.9-1.6-1.6-1.1-3.2c1.9,1.1,3.6,2.2,5.4,3.3c14,8,28.9,10.4,44.4,6
			c20.4-5.8,33.3-19.5,39.5-39.6c1.2-4,2-8.1,2.2-12.2c0.1-1.7-0.1-3.6,1.7-4.8c0.9,0,1.9,0,2.8,0c3.8,0.2,7.7,0.4,11.5,0.6
			c2.7,0.1,4.6-1.1,6.1-3.1c0.6-0.8,0.7-1.8,0.1-2.7c-0.6-1-1.8-1.4-2.9-0.8c-1.4,0.7-2.7,1.6-4.4,1.5c-2.6-0.2-5.1,0-7.7-0.1
			c-2.4-0.1-4.7-0.3-6.9-1.4c-0.5-2.7-0.9-5.2-1.4-7.7c-6.1-28.7-30.6-48.5-56.4-49.5c-0.8,0-1.7-0.5-2.2-0.6
			c0.9-3.6,1.7-6.8,2.6-10.2c0.4-0.2,0.9-0.6,1.5-0.9c3.1-1.3,5.4-3.3,6.5-6.6c0.3-0.8,1-1.7,1.8-2.1c2.9-1.8,5.6-3.8,7.8-6.3
			c0.5-0.6,1.3-1,2-1.1c2-0.3,4-0.4,6.1-0.6c0.4,1.4,0.7,2.4,1,3.5c1.7,5.4,5.6,8.4,11.3,8.7c3.3,0.2,6.3-0.8,9.2-2.2
			c2.2-1.1,4.3-1.6,6.9-1.2c3.9,0.6,8,0.7,11.9-0.6c3.1-1.1,5.9-1.7,9.2-0.3c2.9,1.2,4.8,0.1,6.5-2.5c0.9-1.3,1.2-3,2.8-3.9
			c1.6,0,3.4,0.2,5.1,0c1.6-0.2,3.3-0.4,4.5-1.3c4.3-2.8,6.4-7,6.7-12.1c0.1-1.5-0.4-2.9-1.9-3.6c-1.3-0.7-3.1-0.3-4.4,1
			c-1.9,1.9-2.8,4.1-2,6.9c0.7,2.4-0.3,3.6-2.7,3.9c-1.9,0.3-3.8,0.1-5.6-0.9c-0.5-0.3-1.1-0.7-1.7-1c-1.3-0.5-2.6,0.1-3.1,1.4
			c-0.6,2-1.1,4-1.8,5.9c-0.4,1-1,1-2.8,0.2c0.5-1.6,1-3.3,1.4-5c0.4-1.8,0.7-3.7,1.1-5.8c1-0.3,1.9-0.5,2.8-0.7
			c0.9-0.2,1.9-0.5,2.8-0.8c6.4-2.2,10-5.5,9.3-13.1c0-0.2,0-0.3,0-0.5l0,0c2,2.8,4.6,4.4,8.1,4.3c2.7,0,4.6-1.4,5.3-4
			c0.3-1.1,0.4-2.4,0.7-3.7c1.8,1.2,0.8,2.8,1.3,4.1c0.2,0.6,1,1.3,1.6,1.5c1,0.4,1.9-0.1,2.4-1c0.8-1.3,0.8-2.8,0.4-4.2
			c-1.6-4.9-4.7-8.3-10-9.3c-1.6-0.3-3.3-0.3-4.7-0.9c-3.7-1.7-7.6-2.3-11.7-2.3c-1.9,0-3.4-0.6-4.8-1.8c-1.2-1.1-2.4-2.1-3.7-3
			c-2.5-1.7-5-3.4-7.7-4.8c-3.4-1.8-6.9-2.4-10.6-0.9c-1.1,0.4-2.5,0.3-3.7,0.4c-1.7,0.1-3.6,0-5.2,0.4c-1.8,0.5-3.4,0.4-5.2-0.1
			c-1.2-0.3-2.5-0.6-3.8-0.8c-3.2-0.5-6,0.2-8.6,2.2c-1,0.8-2,1.5-3,2.2c-0.6-0.2-1.1-0.3-1.6-0.4c-4.9-1.4-6.4-0.9-8.5,3.5
			c-1.8,3.8-4.7,6.8-7.7,9.7c-0.6,0.6-1.5,1.1-2.4,1.7c-1-1.2-2.1-2-2.5-3.2c-1.6-3.8-4.4-6.7-6.9-9.8c-1.9-2.4-4.2-4.3-7.1-5.6
			c-1.6-0.7-3.1-1.8-4.3-3c-2-1.9-4.1-3.5-6.4-4.9c-1.8-1.1-3.3-2.5-5.1-3.5c-4.8-2.9-9.6-5.6-14.5-8.4c-0.3-0.2-0.6-0.2-0.9-0.3
			c-3.1-1.2-6.2-2.5-9.3-3.7c-0.7-0.3-1.5-0.7-2.3-0.8c-4.6-0.7-9.2-1.5-13.8-1.9c-4.1-0.3-8.3-0.3-12.5-0.1
			c-5.1,0.2-10.2,0.8-15.3,1.3c-1.1,0.1-2.2,0.5-3.2,0.9c-3.4,1.6-7,2.2-10.7,2c-3-0.1-5.6,0.8-8.2,2.3c-1.9,1.2-3.9,2.2-6,3
			c-2,0.8-3.6,2-5.1,3.5c-2.1,2.2-4.2,4.4-6.5,6.3c-4.5,3.6-8.5,7.7-11.9,12.5c-3.6,5.1-7.1,10.3-10.7,15.3
			c-2.3,3.2-3.8,6.6-4.6,10.5c-0.3,1.4-0.5,2.8-0.9,4.2c-1.7,6.5-1.2,13-1.1,19.6c0,1.2,0.5,2.5,0.9,3.7c1.1,3,2.2,6,3.3,9
			c1.1,2.9,2.6,5.5,4.8,7.7c1.8,1.8,3.3,3.9,5.1,5.8c1.6,1.7,3.3,3.5,5.3,4.8c2.7,1.7,5.6,3.1,8.5,4.5c2.6,1.3,5.5,1.7,8.4,1.5
			c3.5-0.2,7-0.5,10.5-0.7c2.3-0.1,4.4-0.7,6.3-2.1c2-1.6,4-3.1,6-4.8c0.7-0.6,1.5-1.4,1.8-2.2c1.5-3.7,3.5-7.3,4.2-11.2
			c1-5.3,1-10.8,1.4-16.2c0.1-0.9-0.1-1.9-0.2-2.9c-0.5-5.3-3.2-9.6-6-14c-2.4-3.7-5.7-6.5-9.4-8.8c-1.7-1.1-3.6-1.3-5.5-1.1
			c-2.5,0.3-3.5,2.5-2.1,4.5c0.8,1.2,1.9,2.2,2.9,3.2c1.4,1.5,2.2,3.2,2,5.2c-0.1,1-0.5,2.4-1.2,3c-2.1,1.7-4.2,3.4-6.6,4.7
			c-2.1,1.2-4.6,1.9-6.8,0.3c-2.3-1.7-2.9-4.1-2.5-6.9c0-0.3,0.1-0.6,0.2-0.9c2-7.2,7.3-11.4,13.6-14.6c0.7-0.3,1.5-0.4,2.3-0.5
			c5.9-0.7,11.8-1.1,17.7-0.9c5.5,0.2,15.5,3.8,19.9,7.4c0.2,0.2,0.3,0.5,0.7,1c0,0.4,0,1,0,1.7c0,0.6,0,1.3,0.2,1.9
			c0.3,1.3,1.8,1.9,3.1,1.2c0.8-0.4,1.5-1.1,2.1-1.6c7.4,7.3,14.9,16.5,20.4,27.2c0.8,1.5,2,2.9,1.7,4.9c-0.8,0.2-1.3,0.6-1.9,0.6
			c-5.3,0.4-8.8,3.4-11.3,7.8c-2.3,4.3-3.9,8.8-3.8,13.7c0.1,2.3-0.4,4.3-2,6.1c-3.1,3.7-5,8.2-5.9,13c-0.3,1.7-0.6,3.4-0.9,4.8
			c-2.1,1.2-4.1,2-5.5,3.4c-2.7,2.7-4.7,6.1-5.7,9.9c-1.2,4.1-0.2,6.6,3.3,9.2c1.1,0.8,2.3,1.6,3.5,2.4c-0.5,2.6-1.1,4.9-1.5,7.3
			c-0.4,2.2,0.4,3.9,2.4,5.3c3.8,2.6,7.1,5.8,9,10.2c1.6,3.5,4.1,6.1,7.8,7.3c1.6,0.5,2.9,1.2,4,2.5c1.4,1.7,3.2,2.6,5.4,2.7
			c0.9,0,1.9,0.2,2.6,0.3c2.7,3.1,5.3,5.9,7.9,8.8c0.2,0.2,0.3,0.6,0.6,1.1c-1.5,3.8,0.3,7.2,2.5,10.5c1,1.5,2.2,2.8,3,4.3
			c2.8,5.2,6.2,10,10.7,13.9c5.8,4.9,12.1,8.9,20,9.5c1.4,0.1,2.9,0,4.2,1.3c0.2,0.8,0.6,1.7,0.8,2.6c0.7,3.8,2.2,7.3,4.2,10.7
			c3,5.2,6.8,9.7,11.3,13.6c1.1,0.9,2.1,1.9,3.4,3.1c-1.1,0.7-1.8,1.2-2.6,1.6c-4,2.4-8,4.7-11,8.4c-4.7,5.9-9.4,11.7-14.1,17.6
			c-2.5,3.1-4.5,6.6-6.1,10.3c-3.3,7.6-6.5,15.3-8.9,23.3c-4.3,14.3-5.8,28.8-3.8,43.6c0.4,3,0.6,6,1.1,9c0.2,1.7,0.6,3.5,1,5.2
			c0.7,2.6,1.5,5.2,2.1,7.9c0.8,3.5,2,6.7,3.7,9.9c1.8,3.4,3.5,6.8,5.1,10.3C828.4,771.2,836,783.3,846.9,793.2z M501.2,640.6
			c0.5,0.4,1,0.8,1.5,1.2c1.5,1.2,3.5,0.1,3.5-1.6c0-1.3-0.2-2.5-0.5-3.8c-1.6-6.1-4-11.8-7.1-17.3c-0.8-1.3-2-2.5-1.9-4.3
			c0.5-0.2,0.9-0.5,1.3-0.6c3.8-0.2,7.7-0.6,11.5-0.6c5.9,0,11.8,0.5,17.4,2.9c3.5,1.5,7.3,2.2,11.1,3c4.9,1,9.6,0.5,13.5-3.2
			c0.7-0.7,1.5-1.2,2.2-1.8c4.1-3.8,9.1-4,13.9-2.7c3.1,0.8,6.1,2.7,8.8,4.6c2.1,1.5,4.4,2.5,6.8,3.5c2.4,1,4.7-0.1,6.9-1
			c0.6-0.2,1-1.2,1.1-2c0.2-0.9,0.1-1.9-0.1-2.9c-0.4-3.2-0.8-6.3-1.2-9.5c-1.9-15.1-5.4-29.9-10.3-44.3
			c-11.7-34.6-30.6-65-55.3-91.9c-26.8-29.1-58.3-51.8-94-68.5c-41.5-19.4-85.2-29.1-130.9-30c-14.9-0.3-29.7,0.8-44.5,2.8
			c-21,2.8-41.5,7.8-61.3,15.2c-38.9,14.5-72.9,36.3-100.9,67.1c-17.7,19.5-31.6,41.4-41.5,65.8c-7.5,18.5-12.3,37.7-14.6,57.5
			c-1.4,11.6-1.4,23.3-1,35c0.1,3.4,0.5,6.7,0.8,10c0.1,1.4,0.7,2.3,1.8,3.2c1.6,1.4,3,2.9,4.4,4.4c2.3,2.5,5.1,4.5,8.4,5.3
			c4.5,1,9,2.1,13.7,2.2c4.7,0.1,9.2-0.1,13.8-1.1c3-0.7,5.8-1.6,8.5-3c9.2-4.7,18.5-9.4,28.6-12.2c4.5-1.2,8.8-2.9,13.1-4.6
			c3.1-1.3,6.4-2.1,9.7-2.7c6-1.1,12.1-1,18.2-0.9c7.7,0.2,15.3,1.1,22.5,3.9c0.7,0.3,1.5,0.6,2.3,0.7c6.7,0.8,12.5,3.9,18.5,6.5
			c4.6,2,9.2,3.6,14,4.8c6.5,1.7,13,3.3,19.5,4.9c2,0.5,4.1,0.8,6.1,1.1c6.2,0.9,12.5,0.6,18.7,0.6c6.2,0,11.4-2.3,15.8-6.8
			c4-4,8.5-7.3,14.3-8.2c2.5-0.4,5-0.7,7.6-1c0.9-0.1,1.9-0.1,2.8-0.4c2.6-0.7,5-0.4,7.6,0.2c5.3,1.2,10.6,2.3,16.1,2.5
			c3.6,0.1,7.3,0.6,11,1.8c-0.4,1.5-0.7,2.7-0.9,3.9c-1,4.4-2.1,8.7-3,13.1c-0.3,1.5-0.2,3.2,0,4.7c0.1,1,1,1.8,2.1,1.6
			c0.7-0.1,1.7-0.5,1.9-1.1c0.5-1.1,0.8-2.4,0.9-3.7c0.9-9.2,3.8-17.8,8.4-25.8c7.9-13.6,19.1-23.5,33.2-30.3
			c13.2-6.4,27.2-9.2,41.8-8.9c16.8,0.4,32.5,4.7,46.9,13.5c15.4,9.3,27,22,33.7,38.8C499.8,633.8,501.1,637.1,501.2,640.6
			c-0.4-0.7-1-1.5-1.4-2.4c-6.8-14.7-17.6-25.8-31.2-34.3c-14-8.8-29.3-14-45.9-15.7c-15.4-1.6-30.3,0-44.8,5.6
			c-10.6,4.1-19.9,10.2-27.2,19c-9.1,10.8-13.1,23.3-12.1,37.3c0.1,0.9,0.2,1.9,0.6,2.8c0.4,1,1.2,1.5,2.3,1.4
			c1.1-0.1,1.7-0.8,1.9-1.8c0.2-0.9,0.1-1.9,0.1-2.8c0-1.4-0.3-2.9-0.2-4.3c0.5-11.8,4.6-22.1,12.6-30.9
			c7.9-8.6,17.6-14.2,28.6-17.7c13.8-4.4,27.9-5.1,42.2-3c18.3,2.7,34.7,9.6,49,21.4c6.2,5.1,11.5,11.1,15.8,17.9
			c4.6,7.4,7.5,15.5,8.5,24.2c0.1,1,0.2,1.9,0.4,2.8c0.3,1.2,1.3,2,2.4,1.9c1.1-0.1,2-1,2.1-2.3c0.1-0.9,0.1-1.9,0-2.9
			c-0.7-3.8-1.5-7.5-2.3-11.3C502.2,643.9,501.7,642.3,501.2,640.6z M892.3,588.8c0.9,0.4,1.6,0.5,2.1,0.8c1,0.6,1.9,1.1,2.8,1.8
			c3.2,2.4,6.7,3.7,10.6,4.1c7.5,0.8,14.7-0.2,21.2-4.4c2.3-1.5,4.5-1.5,6.7-0.1c0.8,0.5,1.7,1,2.5,1.4c3.3,1.6,6.6,3.4,10.3,3.8
			c2.2,0.2,4.5,0.2,6.7,0.1c1.3-0.1,2.2-1.5,2-2.8c-0.2-1.1-1-1.6-2.5-1.7c-0.3,0-0.6,0-1,0c-5.3,0.3-10-1.5-14.5-4.3
			c-0.5-0.3-1.1-0.7-1.6-1c-3.7-2.1-7.3-2.2-10.8,0.2c-5.1,3.5-10.8,4.4-16.9,4c-3.6-0.2-6.8-1.3-9.8-3.4c-1.4-1-3-1.9-4.5-2.8
			c-2.2-1.3-4.3-1-6.3,0.4c-1,0.7-2,1.6-2.9,2.5c-2.2,2.1-4.7,3.3-7.7,3.3c-2.1,0-4.1,0-6.2,0c-1.1,0-1.9,0.6-2.2,1.6
			c-0.3,1,0.1,1.9,1,2.5c0.5,0.4,1.1,0.8,1.7,0.8c5.7,0.6,11.2,0.3,15.8-3.7C889.9,590.9,890.9,590,892.3,588.8z M942.7,558.1
			c1.8,0,2.9-0.9,3.2-2.2c0.2-1-0.2-1.9-1.8-2.4c-3.3-1-5.9-3.2-8.4-5.4c-1.5-1.4-2.8-3-4.3-4.5c-1.2-1.2-2.4-1.4-3.4-0.7
			c-0.8,0.6-0.9,1.6-0.2,3c0.1,0.3,0.3,0.6,0.4,0.9c3.2,4.8,7.5,8.2,12.5,10.8C941.6,557.9,942.4,558,942.7,558.1z M874.3,558.6
			c1.1-0.5,2.2-0.8,3.1-1.3c3.8-2.4,7.2-5.3,10.1-8.7c1.1-1.3,1.9-2.9,2.6-4.5c0.6-1.4,0.2-2.7-0.6-3c-1.1-0.3-1.8,0.4-2.4,1.2
			c-3.4,4.5-7.8,7.9-12.4,11.1c-0.8,0.5-1.6,1.1-2.1,1.9c-0.3,0.6-0.2,1.5,0,2.2C872.9,558,873.7,558.3,874.3,558.6z"/>
		<path class="st0" d="M1137.8,793.2c-95,0-190.1,0-285.1,0c-1.3-1.4-2.5-2.8-3.9-4.1c-4.3-4.1-8.2-8.5-11.9-13.7
			c0.8,0.1,1.2,0,1.6,0.1c1.1,0.3,1.9,0,2.5-0.9c0.6-1,0.1-1.9-0.6-2.6c-0.9-0.9-1.9-1.8-2.8-2.7c-2.3-2.2-4.5-4.5-6.8-6.8
			c-2.5-2.5-4.3-5.6-5.5-8.9c-1.4-3.8-2.8-7.5-3.9-11.3c-1-3.5-1.5-7.2-2-10.8c-0.6-4-0.7-8-1.5-11.9c-1-5-0.8-9.9-0.2-14.8
			c0.2-1.7,0.4-3.5,0.6-5.2c0.9-6.8,1.4-13.7,3.8-20.2c2.8-7.7,5.5-15.4,8.6-22.9c2.6-6.4,5.6-12.6,9.6-18.2
			c2.3-3.2,4.6-6.5,6.8-9.9c2.6-3.9,5.4-7.5,8.9-10.6c1.1-1,2.2-1.8,3.4-2.6c1.1-0.7,2.1-0.4,3.1,0.3c0.9,0.6,1.1,1.5,0.7,2.5
			c-0.5,1.3,0.2,2.2,1.1,2.9c0.6,0.5,1.3,0.9,2,1.4c8.3,6.5,16.7,13,24.9,19.6c2,1.6,3.7,3.6,5.4,5.4c6.6,7.3,10.8,15.8,12.2,25.6
			c0.1,0.6,0.2,1.3,0.5,1.8c0.3,0.5,1,1.2,1.4,1.1c0.7-0.1,1.5-0.6,1.9-1.1c0.4-0.6,0.5-1.5,0.5-2.3c0-0.9-0.2-1.9-0.4-2.8
			c-2-8.7-5.6-16.6-11.4-23.5c-3.2-3.8-6.7-7.3-10.6-10.4c-4.7-3.8-9.4-7.7-14.1-11.5c-0.7-0.5-1.2-1.2-1.8-1.9c2,0,3.6,0.5,5.2,1
			c1.7,0.5,3.4,1.1,5,1.6c1.7,0.5,3.4,1,5.1,1.4s3.4,0.8,5.2,1.1c1.7,0.3,3.5,0.6,5.2,0.9c1.7,0.3,3.5,0.5,5.2,0.7
			c1.7,0.2,3.5,0.3,5.3,0.4c1.8,0.1,3.5,0.1,5.3,0.1c1.8,0,3.5,0,5.3,0c1.9,0,3.8-0.1,5.8-0.2c1.8-0.1,3.5-0.2,5.3-0.4
			c1.7-0.2,3.5-0.4,5.2-0.7c1.7-0.3,3.5-0.6,5.2-0.9c1.7-0.4,3.4-0.7,5.1-1.2c1.7-0.4,3.4-1,5.1-1.5c1.7-0.5,3.3-1.1,5-1.7
			c1.6-0.6,3.2-1.4,4.9-2c1.5-0.6,2.9-1.8,5.3-1.8c-1.1,1.4-1.6,2.3-2.4,3.1c-5.8,6.2-9.7,13.5-13.1,21.1c-3,6.6-4.2,13.4-2.6,20.5
			c0.5,2.2,1,4.3,3.1,6.1c0.5-0.9,1.1-1.6,1.1-2.2c0-2.5,0.1-5.1-0.3-7.6c-0.3-2.3-0.4-4.4,0.1-6.6c2.3-9.9,6.8-18.6,13.4-26.2
			c3.1-3.6,6.2-7.4,10.7-9c0.5-1.3,0.8-2.3,1.3-3.5c3.7,0.1,7.3,0,10.7,0.4c6.7,0.8,13.3,1.8,19.7,3.8c3.5,1.1,7,2.2,10.1,4.3
			c1.9,1.2,3.9,2.2,6,3c2.9,1,5.6,2.3,8.2,4c3.5,2.3,7.2,4.1,11.2,5.3c4,1.2,7.7,3,11.3,5.2c2.6,1.6,5.2,3.2,7.8,4.7
			c3.9,2.3,7.3,5.1,10.7,8.1c9.8,8.8,19,18.1,27.2,28.4c0.1,0.1,0.2,0.2,0.3,0.4c11.2,12.2,19.1,26.4,24,42.2c2,6.6,4.4,13,7.4,19.2
			c2.3,4.8,3.7,9.9,4.5,15.1c1.1,7,0.9,14,0.2,21C1138.5,784.3,1138.2,788.7,1137.8,793.2z M1025.4,709.2c0.2-0.9,0.3-1.4,0.3-1.8
			c0.1-0.5,0.1-1,0-1.4c-0.1-1.4-1.1-2.5-2.3-2.6c-1,0-2,0.7-2.4,2c-0.8,2.2-0.6,4.4-0.2,6.6c1.5,8.6,3.9,16.8,7.6,24.7
			c1.5,3.2,3.3,6.2,5.2,9.1c3.4,5,8.2,8.5,13.9,10.6c3.8,1.4,7.8,1.7,11.7,2.2c0.7,0.1,1.7-0.1,2.3-0.5c0.6-0.4,1-1.2,1.1-1.9
			c0.1-0.4-0.7-1.2-1.2-1.3c-2.2-0.5-4.4-0.9-6.6-1.2c-7.8-1-13.9-4.7-18.2-11.2c-1.7-2.7-3.3-5.5-4.6-8.4
			c-2.9-6.4-4.9-13.2-6.2-20.1C1025.6,712.3,1025.6,710.5,1025.4,709.2z M944.2,753.3c0-3.8-1.5-6.7-4-9.2c-2-2-4.9-1.8-6.6,0.5
			c-2.9,3.7-2,10.4,1.7,13.5c3.4,2.7,7.4,1.5,8.6-2.7C944.1,754.7,944.1,753.8,944.2,753.3z M926.4,711.5c-0.1,2.9,0.2,4.6,1.4,6
			c1.9,2.3,4.9,2,6.3-0.6c1.5-2.8,0.9-7.1-1.3-9.4c-1.6-1.7-4.2-1.5-5.3,0.5C926.7,709.4,926.5,711,926.4,711.5z"/>
		<path d="M1137.8,793.2c0.4-4.5,0.8-8.9,1.2-13.4c0.7-7,0.8-14-0.2-21c-0.8-5.3-2.2-10.3-4.5-15.1c-2.9-6.2-5.4-12.7-7.4-19.2
			c-4.9-15.8-12.7-30-24-42.2c-0.1-0.1-0.2-0.2-0.3-0.4c-8.1-10.3-17.4-19.6-27.2-28.4c-3.3-3-6.7-5.9-10.7-8.1
			c-2.6-1.5-5.2-3.1-7.8-4.7c-3.6-2.1-7.3-4-11.3-5.2c-4-1.2-7.7-3-11.2-5.3c-2.6-1.7-5.3-2.9-8.2-4c-2.1-0.7-4.1-1.8-6-3
			c-3.1-2.1-6.6-3.2-10.1-4.3c-6.5-2-13.1-3-19.7-3.8c-3.5-0.4-7-0.3-10.7-0.4c-0.4,1.2-0.8,2.2-1.3,3.5c-4.5,1.6-7.6,5.4-10.7,9
			c-6.6,7.6-11.1,16.4-13.4,26.2c-0.5,2.2-0.4,4.4-0.1,6.6c0.4,2.5,0.3,5.1,0.3,7.6c0,0.7-0.6,1.3-1.1,2.2c-2.1-1.8-2.6-3.9-3.1-6.1
			c-1.5-7.2-0.3-13.9,2.6-20.5c3.4-7.6,7.3-14.9,13.1-21.1c0.7-0.8,1.3-1.7,2.4-3.1c-2.4,0-3.8,1.2-5.3,1.8c-1.7,0.6-3.2,1.4-4.9,2
			c-1.6,0.6-3.3,1.2-5,1.7c-1.7,0.5-3.4,1.1-5.1,1.5c-1.7,0.4-3.4,0.8-5.1,1.2c-1.7,0.4-3.5,0.7-5.2,0.9c-1.7,0.3-3.5,0.5-5.2,0.7
			c-1.7,0.2-3.5,0.3-5.3,0.4c-1.9,0.1-3.8,0.1-5.8,0.2c-1.8,0-3.5,0-5.3,0c-1.8,0-3.5-0.1-5.3-0.1c-1.8-0.1-3.5-0.2-5.3-0.4
			c-1.7-0.2-3.5-0.4-5.2-0.7c-1.7-0.3-3.5-0.6-5.2-0.9c-1.7-0.3-3.5-0.7-5.2-1.1s-3.4-0.9-5.1-1.4c-1.7-0.5-3.4-1-5-1.6
			c-1.6-0.5-3.2-1.1-5.2-1c0.6,0.6,1.2,1.3,1.8,1.9c4.7,3.9,9.4,7.7,14.1,11.5c3.9,3.1,7.3,6.6,10.6,10.4
			c5.8,6.9,9.4,14.8,11.4,23.5c0.2,0.9,0.4,1.9,0.4,2.8c0,0.8-0.1,1.7-0.5,2.3c-0.4,0.6-1.2,1-1.9,1.1c-0.4,0.1-1.1-0.6-1.4-1.1
			c-0.3-0.5-0.4-1.2-0.5-1.8c-1.5-9.8-5.6-18.3-12.2-25.6c-1.7-1.9-3.4-3.9-5.4-5.4c-8.2-6.6-16.6-13.1-24.9-19.6
			c-0.6-0.5-1.3-0.9-2-1.4c-1-0.7-1.6-1.6-1.1-2.9c0.4-1,0.2-1.9-0.7-2.5c-1-0.7-2.1-1-3.1-0.3c-1.2,0.8-2.4,1.6-3.4,2.6
			c-3.5,3.1-6.4,6.7-8.9,10.6c-2.2,3.3-4.5,6.6-6.8,9.9c-4,5.6-7,11.8-9.6,18.2c-3.1,7.5-5.8,15.3-8.6,22.9
			c-2.4,6.5-2.9,13.4-3.8,20.2c-0.2,1.7-0.4,3.5-0.6,5.2c-0.6,4.9-0.7,9.8,0.2,14.8c0.8,3.9,0.9,7.9,1.5,11.9
			c0.5,3.6,1.1,7.3,2,10.8c1,3.8,2.5,7.6,3.9,11.3c1.2,3.4,3,6.4,5.5,8.9c2.3,2.3,4.5,4.5,6.8,6.8c0.9,0.9,1.9,1.7,2.8,2.7
			c0.7,0.7,1.1,1.6,0.6,2.6c-0.5,0.9-1.4,1.2-2.5,0.9c-0.4-0.1-0.8-0.1-1.6-0.1c3.7,5.2,7.5,9.6,11.9,13.7c1.4,1.3,2.6,2.7,3.9,4.1
			c-1.9,0-3.8,0-5.8,0c-10.8-9.9-18.5-22-24.6-35.1c-1.6-3.5-3.4-6.9-5.1-10.3c-1.6-3.1-2.9-6.4-3.7-9.9c-0.6-2.6-1.5-5.2-2.1-7.9
			c-0.4-1.7-0.8-3.4-1-5.2c-0.4-3-0.6-6-1.1-9c-2.1-14.8-0.6-29.3,3.8-43.6c2.4-8,5.6-15.7,8.9-23.3c1.6-3.7,3.6-7.1,6.1-10.3
			c4.7-5.9,9.4-11.8,14.1-17.6c3-3.7,7-6,11-8.4c0.8-0.5,1.5-1,2.6-1.6c-1.3-1.2-2.4-2.2-3.4-3.1c-4.5-3.9-8.4-8.4-11.3-13.6
			c-1.9-3.3-3.5-6.8-4.2-10.7c-0.2-0.9-0.5-1.8-0.8-2.6c-1.3-1.2-2.8-1.2-4.2-1.3c-7.9-0.6-14.2-4.6-20-9.5
			c-4.6-3.9-7.9-8.7-10.7-13.9c-0.8-1.5-2.1-2.8-3-4.3c-2.2-3.3-4-6.6-2.5-10.5c-0.3-0.6-0.4-0.9-0.6-1.1c-2.6-2.9-5.1-5.7-7.9-8.8
			c-0.8-0.1-1.7-0.3-2.6-0.3c-2.2-0.1-4-1-5.4-2.7c-1.1-1.3-2.4-2-4-2.5c-3.7-1.1-6.3-3.8-7.8-7.3c-1.9-4.4-5.2-7.5-9-10.2
			c-2-1.4-2.8-3.1-2.4-5.3c0.4-2.4,1-4.7,1.5-7.3c-1.2-0.8-2.4-1.6-3.5-2.4c-3.5-2.5-4.5-5-3.3-9.2c1.1-3.7,3-7.1,5.7-9.9
			c1.4-1.4,3.4-2.1,5.5-3.4c0.2-1.3,0.5-3.1,0.9-4.8c1-4.8,2.8-9.2,5.9-13c1.6-1.9,2.1-3.8,2-6.1c-0.1-4.9,1.4-9.5,3.8-13.7
			c2.4-4.5,5.9-7.5,11.3-7.8c0.6,0,1.2-0.4,1.9-0.6c0.3-2-1-3.4-1.7-4.9c-5.6-10.7-13-20-20.4-27.2c-0.7,0.5-1.4,1.2-2.1,1.6
			c-1.3,0.7-2.7,0.1-3.1-1.2c-0.2-0.6-0.2-1.3-0.2-1.9c0-0.6,0-1.3,0-1.7c-0.3-0.5-0.4-0.8-0.7-1c-4.4-3.6-14.4-7.2-19.9-7.4
			c-5.9-0.2-11.8,0.2-17.7,0.9c-0.8,0.1-1.6,0.1-2.3,0.5c-6.3,3.2-11.5,7.5-13.6,14.6c-0.1,0.3-0.1,0.6-0.2,0.9
			c-0.4,2.7,0.2,5.2,2.5,6.9c2.2,1.6,4.7,0.9,6.8-0.3c2.4-1.3,4.5-3,6.6-4.7c0.7-0.6,1.1-1.9,1.2-3c0.2-2-0.6-3.7-2-5.2
			c-1-1-2.1-2-2.9-3.2c-1.5-2.1-0.5-4.2,2.1-4.5c2-0.3,3.8,0,5.5,1.1c3.7,2.3,7,5.1,9.4,8.8c2.8,4.3,5.5,8.7,6,14
			c0.1,1,0.3,1.9,0.2,2.9c-0.4,5.4-0.4,10.9-1.4,16.2c-0.7,3.9-2.7,7.5-4.2,11.2c-0.3,0.8-1.1,1.6-1.8,2.2c-1.9,1.7-4,3.3-6,4.8
			c-1.8,1.4-3.9,2-6.3,2.1c-3.5,0.1-7,0.4-10.5,0.7c-2.9,0.2-5.8-0.2-8.4-1.5c-2.9-1.4-5.8-2.8-8.5-4.5c-2-1.3-3.6-3.1-5.3-4.8
			c-1.8-1.8-3.3-4-5.1-5.8c-2.2-2.2-3.7-4.8-4.8-7.7c-1.1-3-2.3-6-3.3-9c-0.4-1.2-0.9-2.5-0.9-3.7c-0.1-6.5-0.6-13.1,1.1-19.6
			c0.4-1.4,0.6-2.8,0.9-4.2c0.8-3.8,2.3-7.3,4.6-10.5c3.7-5.1,7.1-10.2,10.7-15.3c3.3-4.7,7.3-8.8,11.9-12.5
			c2.4-1.9,4.4-4.1,6.5-6.3c1.5-1.5,3-2.7,5.1-3.5c2.1-0.8,4.1-1.8,6-3c2.5-1.5,5.2-2.4,8.2-2.3c3.7,0.1,7.3-0.4,10.7-2
			c1-0.5,2.1-0.8,3.2-0.9c5.1-0.5,10.2-1,15.3-1.3c4.1-0.2,8.3-0.3,12.5,0.1c4.6,0.4,9.2,1.2,13.8,1.9c0.8,0.1,1.5,0.5,2.3,0.8
			c3.1,1.2,6.2,2.5,9.3,3.7c0.3,0.1,0.6,0.2,0.9,0.3c4.8,2.8,9.7,5.5,14.5,8.4c1.8,1.1,3.4,2.5,5.1,3.5c2.3,1.4,4.5,3,6.4,4.9
			c1.2,1.2,2.7,2.3,4.3,3c2.9,1.3,5.1,3.2,7.1,5.6c2.5,3.1,5.3,6,6.9,9.8c0.5,1.1,1.5,2,2.5,3.2c0.9-0.7,1.7-1.1,2.4-1.7
			c3-2.9,5.8-5.9,7.7-9.7c2.1-4.4,3.6-4.9,8.5-3.5c0.5,0.1,0.9,0.2,1.6,0.4c1-0.7,2-1.4,3-2.2c2.5-2,5.4-2.6,8.6-2.2
			c1.3,0.2,2.5,0.4,3.8,0.8c1.7,0.5,3.4,0.6,5.2,0.1c1.7-0.4,3.5-0.3,5.2-0.4c1.3-0.1,2.6,0,3.7-0.4c3.7-1.5,7.3-0.9,10.6,0.9
			c2.7,1.4,5.2,3.1,7.7,4.8c1.3,0.9,2.5,2,3.7,3c1.4,1.3,2.9,1.8,4.8,1.8c4-0.1,7.9,0.6,11.7,2.3c1.4,0.6,3.1,0.6,4.7,0.9
			c5.3,1,8.3,4.4,10,9.3c0.5,1.4,0.4,2.9-0.4,4.2c-0.5,0.9-1.5,1.4-2.4,1c-0.6-0.2-1.3-0.9-1.6-1.5c-0.5-1.2,0.5-2.9-1.3-4.1
			c-0.2,1.3-0.3,2.5-0.7,3.7c-0.8,2.6-2.6,3.9-5.3,4c-3.5,0-6.1-1.6-8.1-4.3c-0.4-3.1,0.6-5.9,1.5-8.8c-1.8-1.1-3.4-2-5.2-1
			c-0.1,4,2.3,6.7,3.8,9.8c0,0.2,0,0.3,0,0.5c0.7,7.7-2.8,10.9-9.3,13.1c-0.9,0.3-1.8,0.5-2.8,0.8c-0.9,0.2-1.8,0.5-2.8,0.7
			c-0.4,2-0.7,3.9-1.1,5.8c-0.4,1.7-0.9,3.4-1.4,5c1.8,0.8,2.4,0.8,2.8-0.2c0.7-1.9,1.2-4,1.8-5.9c0.4-1.3,1.8-2,3.1-1.4
			c0.6,0.2,1.1,0.6,1.7,1c1.7,1.1,3.6,1.2,5.6,0.9c2.4-0.3,3.4-1.6,2.7-3.9c-0.8-2.8,0-5,2-6.9c1.3-1.3,3.1-1.7,4.4-1
			c1.5,0.7,2,2.1,1.9,3.6c-0.3,5.1-2.4,9.3-6.7,12.1c-1.3,0.8-3,1.1-4.5,1.3c-1.7,0.2-3.5,0-5.1,0c-1.7,0.9-1.9,2.6-2.8,3.9
			c-1.8,2.6-3.7,3.7-6.5,2.5c-3.3-1.4-6.1-0.8-9.2,0.3c-3.9,1.4-7.9,1.2-11.9,0.6c-2.6-0.4-4.7,0.1-6.9,1.2
			c-2.9,1.5-5.9,2.4-9.2,2.2c-5.7-0.4-9.6-3.3-11.3-8.7c-0.3-1.1-0.6-2.1-1-3.5c-2.1,0.2-4.1,0.3-6.1,0.6c-0.7,0.1-1.5,0.6-2,1.1
			c-2.2,2.6-4.9,4.6-7.8,6.3c-0.8,0.5-1.5,1.3-1.8,2.1c-1.1,3.3-3.3,5.4-6.5,6.6c-0.6,0.2-1.1,0.6-1.5,0.9
			c-0.9,3.4-1.7,6.6-2.6,10.2c0.6,0.2,1.4,0.6,2.2,0.6c25.8,1,50.2,20.8,56.4,49.5c0.5,2.5,0.9,5,1.4,7.7c2.2,1.2,4.5,1.3,6.9,1.4
			c2.6,0.1,5.1,0,7.7,0.1c1.7,0.1,3-0.8,4.4-1.5c1.2-0.6,2.3-0.2,2.9,0.8c0.6,0.9,0.4,1.9-0.1,2.7c-1.5,2.1-3.4,3.3-6.1,3.1
			c-3.8-0.2-7.7-0.4-11.5-0.6c-1,0-1.9,0-2.8,0c-1.8,1.2-1.6,3.1-1.7,4.8c-0.2,4.2-1,8.3-2.2,12.2c-6.3,20.1-19.1,33.8-39.5,39.6
			c-15.5,4.4-30.4,2.1-44.4-6c-1.8-1-3.5-2.1-5.4-3.3c-0.4,1.6,0.7,2.2,1.1,3.2c0.4,0.9,1,1.6,1.6,2.4c0.9,1.3,1.7,2.7,2.5,4
			c4.4,7.6,10.1,14,17.9,18.2c3.5,1.9,7.3,2.3,11.2,2.2c5.8-0.1,11.5-0.7,17.1-2.2c2-0.6,3.9-1.4,5.8-2.1c0.7-0.3,1.5-0.6,2.2-0.7
			c1-0.1,1.9,0.3,2.3,1.3c0.4,1,0.2,2-0.6,2.6c-0.9,0.7-1.9,1.2-2.9,1.6c-4.7,2.1-9.8,2.9-14.9,3.6c-0.8,0.1-1.5,0.3-2.6,0.4
			c0,1.1-0.1,2,0,2.9c0.9,5.5,3.1,10.4,6.5,14.8c3.4,4.3,7.4,7.9,11.9,11c16.2,11.2,34.4,15.7,53.8,16.6c13.4,0.6,26.5-0.8,39.3-5
			c6.1-2,11.9-4.7,17.3-8.2c5.3-3.4,9.9-7.6,13.4-12.9c2.1-3.1,3.6-6.4,4.4-10.1c0.2-1.1,0.4-2.2,0.4-3.3c0-0.6-0.2-1.2-0.3-2.2
			c-1.1,0-2.3-0.3-3.2,0c-3.5,1.1-7,0.2-10.5,0.4c-1,0.1-1.9-0.9-1.9-1.8c0-1.1,0.6-1.8,1.6-2.1c1.1-0.3,2.3-0.7,3.3-0.5
			c3.6,0.8,7.1-0.1,10.4-1c6.6-1.7,12.5-4.9,17.6-9.5c1.3-1.2,2.3-2.7,3.6-3.9c3.7-3.5,5.2-8,6.1-12.8c0.7-3.3,0.1-5-2-8.3
			c-0.9,0.9-1.9,1.7-2.7,2.6c-3.2,3.4-6.6,6.5-10.6,8.9c-13.2,7.9-26.8,8.8-40.9,2.8c-9.5-4.1-16.9-10.8-22.7-19.3
			c-13.4-19.9-14.8-47.4-3.4-68.5c4.2-7.7,9.7-14.3,17.2-19c14.5-9.1,29.5-9.9,44.7-2.1c10.2,5.2,17.4,13.4,22.8,23.3
			c0.7,1.2,1.3,2.4,2.5,4.7c0.1-3,0.1-4.9,0.2-6.8c0.2-2.2,0.3-4.5,0.8-6.6c0.3-1.3,0.9-2.8,1.9-3.8c2.2-2.2,2.7-5,3.7-7.7
			c0.6-1.6-0.4-2.9-2.1-3c-1.3-0.1-2.6,0.1-3.8,0c-1.6-0.1-3.4,0-4.7-0.7c-3.8-2-7.6-4.1-11-6.6c-1.9-1.3-3.1-3.6-4.8-5.7
			c-0.8,0.2-1.7,0.5-2.6,0.7c-1.7,0.3-3.5,0.7-5.2,0.7c-3.3,0.1-6-1-7.5-4.2c-0.2-0.4-0.6-0.8-0.9-1.3c-1.3-0.2-2.8-0.4-4.2-0.7
			c-3.1-0.7-5.1-2.5-5.6-5.8c-0.1-1.1-0.3-2.2-0.4-3.2c-2.2-2-4.4-2.5-7.2-1.8c-1.8,0.5-3.8,0.5-5.7,0.5c-1.2,0-2.7-0.2-3.7-0.9
			c-3-1.8-5.9-3.7-9.1-5.1c-1.6-0.7-2.5-2.5-2.9-4.2c-0.3-1.2-0.5-2.4-0.9-3.9c-1.6-0.1-3-0.2-4.4-0.3c-1.2-0.1-2.1-1-2.3-2.1
			c-0.3-1.8,0.4-3.1,1.7-4.2c1.2-1,2.5-1.3,4-0.4c0.4,0.2,0.8,0.5,1.4,0.9c1-2.1,1.9-4,3-6.2c-1.4-3.4-0.5-6.7,0.7-10.1
			c2.1-6.1,4.4-12,8.2-17.2c0.1-0.1,0.2-0.3,0.2-0.4c6.4-13.2,16.7-23.3,26.4-33.9c2.8-3,6.3-5.4,9.7-7.8c3.2-2.4,6.6-4.4,9.8-6.5
			c0.3-0.5,0.6-0.7,0.6-1c0-3.4,2-5.2,4.9-6.4c3.4-1.4,6.9-2.5,10.6-2.8c4.7-0.3,9.2-1.3,13.5-3.1c3.3-1.4,6.7-1.9,10.2-2.5
			c7.6-1.3,15.3-1.1,23-0.8c2.8,0.1,5.3,0.8,7.9,1.9c2.5,1.1,5.1,1.9,7.6,3c2.4,1,4.7,2,7,3.1c5.9,2.6,11.2,6.1,15.2,11.3
			c0.6,0.7,1.4,1.3,2.1,1.9c2.5,2.1,4.3,4.7,5.4,7.8c1.3,3.6,3.2,7,5.4,10.1c4.6,6.5,6.6,13.8,6.9,21.6c0.2,3.8,0.3,7.7,0,11.5
			c-0.6,6.4-1.9,12.7-5.2,18.3c-3.3,5.7-8.1,9.9-13.7,13.1c-6.3,3.6-13.2,5.7-20.4,6.8c-3.4,0.5-6.7-0.2-10-0.6
			c-3.6-0.4-6.8-1.7-9.8-3.5c-1.4-0.8-2.7-1.8-3.6-3.1c-4.1-5.7-6.8-11.9-6.6-19.1c0-1.3,0-2.5,0-3.6c-1.4-0.7-1.7,0.2-2.1,0.8
			c-3.3,4.5-7.1,8.6-11.4,12.3c-2,1.7-4,3.1-6.5,4c-3.9,1.4-7.8,2.9-11.7,4.3c-2.8,0.9-5.4,2.1-7.6,3.9c-0.7,0.6-1.3,1.4-2.1,2.3
			c1.8,2.7,3.6,5.4,5.4,8c0.3,0.5,1,0.8,1.6,1c3.4,1.1,6.4,2.9,8.9,5.5c0.7,0.8,1.9,1.1,3,1.8c-0.1,1.2-0.2,2.6-0.4,4.2
			c2.9,0.3,6-1.1,8.5,1.6c-2.9,1.7-7.1,1.9-7.6,6.3c1,0.6,1.4-0.3,1.9-0.8c2.2-1.7,4.4-1.7,6.7-0.4c1,0.5,1.9,1.3,2.9,1.7
			c1,0.3,2.1,0.3,3.2,0.4c0,3.4,0,6.5,0,9.8c-2-0.3-2.1-2.8-4.5-3.7c-1,0-2.9,0-4.8,0c-2.9,0.1-2.9,0.2-3.7,3.9
			c5.8,1.7,10.7,4.9,13.5,10.6c0.9-0.4,1.7-1.2,2.4-1.1c0.8,0.1,1.5,1.1,2.1,1.7c0.2,0.2,0.4,0.6,0.4,0.9c-0.1,3.6,1.9,6.3,3.5,9.2
			c2.2,3.9,3,8.1,1.8,12.5c-0.2,0.6-0.2,1.2-0.4,2.1c1.8,2.2,2.8,4.7,2.8,7.8c0,1,0.8,2.1,1,3.2c0.4,1.7,0.9,3.5,0.7,5.1
			c-0.6,4.6-2,9-5.2,12.7c-0.7,0.8-1.1,1.9-1.5,2.9c-0.5,1.5-0.6,3.2-1.1,4.6c-1,2.8-3,4.5-6.1,4.5c-0.2,0-0.3,0-0.5,0
			c-4.3-0.4-8.4-0.4-12.7,0.7c-4.1,1-7.8-1-10.5-4.7c-1.8,1.5-1.5,3.6-2.3,5.2c-0.9,1.7-1.4,3.6-2.2,5.3c-0.8,1.7-1.7,3.4-2.6,5.3
			c0.4,1,0.9,2,1.3,3c3.1,9.3,1.2,17.7-4.7,25.2c-4.7,6-10.6,10.6-17.7,13.6c-0.9,0.4-1.7,0.9-2.7,1.5c0.2,11-4.6,20-12.8,27.9
			c1.4,0.4,2.1,0.8,2.8,0.8c6.3-0.2,12.4,1,18.6,2c5,0.9,9.9,2.6,14.8,4c0.3,0.1,0.6,0.2,0.9,0.4c6.6,4.5,14.6,6.5,21.3,10.9
			c2.5,1.6,5.4,2.7,8.3,3.7c4.3,1.4,8.3,3.3,12.2,5.6c2.5,1.5,4.9,2.9,7.4,4.4c4.3,2.5,8.2,5.6,11.8,9c2.5,2.4,5.1,4.9,7.7,7.2
			c4.8,4.3,9.2,8.8,13.3,13.9c2.3,2.9,4.7,5.7,7.2,8.4c11.1,12.3,19,26.4,24,42.2c2.3,7.2,4.9,14.2,8.1,21c3.2,6.9,4.7,14.3,5,21.8
			c0.3,5.4,0.2,10.9-0.6,16.3c-0.6,3.9-1,7.9-1.5,11.9C1140.3,793.2,1139,793.2,1137.8,793.2z M881.5,524.5c-0.3,0.6-0.6,1.3-1,1.9
			c-0.7,0.9-1.3,1.9-2,2.8c-0.1,0.1-0.2,0.2-0.3,0.3c-0.1,0.1-0.1,0.2-0.1,0.3c0.1-0.2,0.2-0.4,0.3-0.6c0.6-0.9,1.3-1.9,1.9-2.8
			C880.8,525.7,881.1,525,881.5,524.5c0.3-0.7,0.6-1.4,0.9-2c1.3-1.3,1.9-2.9,1.9-4.8c0.3-1,0.6-1.9,1-2.9c2.2-4.4,2.8-9.1,2.6-14.7
			c-0.6,3.7-1.2,6.6-1.7,9.6c-0.3,1.7-0.6,3.4-0.9,5.1c-0.3,1-0.6,1.9-1,2.9c-1.3,1.3-1.8,3-1.9,4.8
			C882.1,523.1,881.8,523.8,881.5,524.5z M811.4,351.6c0.1,0,0.2,0.1,0.3,0.1C811.6,351.7,811.5,351.7,811.4,351.6
			c-1.3-2.1-3.3-3.4-5.4-4.5c-5.8-2.9-11.5-6.1-17.6-8.5c-5.5-2.2-11.1-2.9-16.8-3.3c-1.3-0.1-2.6,0-3.5,1.1
			c-1.1,1.3-2.4,1.2-3.9,0.9c-2.2-0.6-4.4-0.2-6.5,0.8c-5.7,3-11.1,6.5-15.7,10.9c-4.5,4.4-7.9,9.6-10.7,15.2
			c-1.4,2.8-1.5,5.9-1.1,8.9c0.4,2.6,1.2,3.3,3.7,3.5c2.1,0.1,4.2,0,6.2,0.2c2.2,0.2,4.6,0,6.6,0.9c4.4,1.8,9.2,2.8,13.3,5.4
			c0.7,0.5,1.7,0.6,2.4,0.8c0.4-0.3,0.5-0.4,0.6-0.6c0.2-0.4,0.5-0.8,0.7-1.3c2.9-6.9,7.2-12.8,13.1-17.4c1.8-1.4,3.5-2.8,5.2-4.2
			c2.8-2.2,5.8-4.1,9.3-4.9c5.7-1.3,11.3-3.7,17.3-3.4C809.5,352.2,810.4,351.8,811.4,351.6z M938.1,472.6c-1.2,2.2-2.6,4.4-3.6,6.7
			c-3.3,8.1-4.4,16.6-4.1,25.4c0.5,12.1,4.1,23.2,10.9,33.2c3.3,4.8,7.3,8.9,11.9,12.4c14.5,10.7,34.9,10.7,49.3-1.5
			c4.4-3.8,8.1-8.1,11-13.2c7.8-14,9.7-28.9,6.2-44.5c-2.6-11.5-7.9-21.6-16.6-29.7c-9.4-8.7-20.4-13-33.3-11.7
			c-1.7,0.2-3.5,0.6-5.1,1.2c-5.5,2.2-9.7,6.2-13.4,10.6c-3.8,4.6-7.2,9.7-9.4,15.5c-3.1,8-5.3,16.2-4.4,24.7
			c0.7,6.6,2.3,13.2,3.6,19.8c0.2,1.1,0.8,2.1,1.2,3.1c1.6,4.6,4.1,8.5,8.1,11.4c5.1,3.8,9.5,8.5,15,11.8c2.8,1.7,5.4,3.3,8.9,3.1
			c0.9-0.1,1.9,0.3,2.8,0.6c1.1,0.4,1.6,1.8,1.3,2.8c-0.3,1-1.1,1.7-2.1,1.6c-3.2-0.2-6.5,0.1-9.4-1.6c-4-2.4-7.9-4.9-11.6-7.7
			c-4.3-3.3-8.3-7-12.4-10.5c-0.8-0.7-1.7-1.6-2.1-2.6c-1.9-4.9-4.6-9.5-5.6-14.8c-0.9-4.9-1.9-9.7-2.5-14.6
			c-1-7.7-0.2-15.3,2.4-22.6C936.2,478.6,937.1,475.6,938.1,472.6c0.1-0.1,0.2-0.2,0.3-0.3c0.1-0.1,0-0.2,0.1-0.3
			C938.4,472.2,938.2,472.4,938.1,472.6z M789.3,514.7c0.5,2.4,0.1,4.7-1,6.9c-0.3,0.5-0.5,1.2,0.6,1.7c1-1.1,2-2.2,3.1-3.4
			C791,518.1,790.2,516.5,789.3,514.7c-0.6-2.6-1.2-5.3-1.7-7.9c-0.7-3.1-1-6.3-0.6-9.5c1.5-12.3,7.1-22.4,16.3-30.6
			c0.5-0.4,1-0.8,1.6-1c1-0.4,1.9-0.2,2.6,0.6c0.7,0.8,0.8,1.8,0.1,2.7c-1.2,1.5-2.5,2.9-3.9,4.2c-6,5.9-9.5,13.1-11.2,21.3
			c-0.4,1.9-1,3.8-0.8,5.7c0.5,6.1,1.7,12,4.7,17.5c1.4,2.5,3.3,4.3,5.9,5.4c1.2,0.5,2.3,1.1,3.5,1.7c0.9,0.5,1.4,1.3,1,2.4
			c-0.3,1-1.2,1.6-2.2,1.5c-1.2-0.1-2.5-0.4-3.7-0.9c-2.1-1-4.2-2.2-6.5-3.5c-0.9,1.6-1.8,3-2.6,4.3c7.3,12.2,24.5,22.2,38.9,23
			c-2.2-1-4.2-1.9-6.2-2.9c-0.7-0.3-1.4-0.7-2-1.3c-0.8-0.7-1-1.6-0.5-2.6c0.5-1,1.4-1.4,2.4-1.1c0.8,0.2,1.5,0.6,2.2,0.9
			c11.5,4.7,22.5,3.8,33-3c6-3.9,10.8-9,14.5-15.1c7.3-12.2,10.2-25.4,8.4-39.6c-1.6-12.7-6.5-23.7-16.3-32.1c-1-0.8-2.1-1.6-2.2-3
			c-0.1-1.9-1.5-2.7-2.8-3.6c-12-7.7-25.1-10.1-39-7.8c-2,0.3-4,1-6,1.6c-1.3,0.4-2.3,1-2.9,2.3c-1.3,3.1-3.9,4.6-7,5.2
			c-1.5,0.3-2.7,0.9-3.7,2c-2.8,2.9-5.8,5.4-9.7,7c-1.2,0.5-2.1,1.4-2,2.9c1.4,2.3,4.3,1.7,6.5,3.1c-2.4,3-5.7,2.2-8.8,2.6
			c-1.9,3.1-3.8,6.3-5.7,9.6c-0.4,0.7-0.6,1.5-0.8,2.2c-0.4,2.5,0.4,5.1-0.9,7.5c0.5,1.8,1.6,3.6-0.8,5c-0.2,0.1,0,0.9,0.1,1.4
			c0.1,0.6,0.6,1.3,0.5,1.8c-1.4,5.1,0.4,9.8,1.4,14.6c0.3,1.4,0.6,2.9,1.4,3.5C785.7,513.5,787.5,514.1,789.3,514.7z M990.9,333.8
			c0.1,0.3,0.3,0.6,0.4,0.8c4-0.9,8.1-1.8,12.1-2.8c3.7-0.9,7.5-1.4,11.4-1.4c6.1,0.1,12.1-0.5,18.2,0.6c0.5,0.1,1,0.1,1.4,0
			c5.7-0.7,10.6,1.6,15.5,4.1c1.7,0.9,3.2,2.1,4,4c1.1,2.8,2.1,5.7,3,8.6c0.2,0.8,0,1.9-0.4,2.7c-0.5,1.3-2.4,1.5-3.2,0.4
			c-0.5-0.6-0.8-1.4-1.1-2.1c-0.7-1.9-1.3-4-2.1-5.9c-0.5-1.1-1.1-2.5-2.1-3.1c-3.7-2.2-7.6-4.2-12.1-4.1
			c-6.5,0.1-13.1-0.7-19.6-0.3c-4.7,0.3-9.2,0.3-13.7,1.8c-1.5,0.5-3.1,0.8-4.7,1.1c-4.5,0.8-8.6,2.5-12.3,5.2
			c-0.9,0.6-2.1,1.4-3,1.2c-2-0.3-3,0.8-4,2c-3.7,4.4-7.3,8.9-10.9,13.4c-0.3,0.3-0.3,0.8-0.7,1.7c1.1-0.6,1.8-0.9,2.4-1.3
			c6.8-3.4,13.9-5.8,21.3-7c3.3-0.5,6.6-1,10-1.5c10.6-1.5,20.4,0.7,29.2,6.6c1.9,1.2,3.6,2.7,5.3,4.1c2,1.8,3.2,4,3,6.8
			c0,1-0.5,1.9-1.6,2.2c-1,0.3-1.9-0.2-2.4-1c-0.4-0.7-0.6-1.5-1-2.1c-0.8-1.2-1.6-2.4-2.7-3.3c-8.7-7.4-18.8-9.8-30-8.3
			c-2.7,0.4-5.3,1-8,1.3c-6.3,0.6-12.1,3-17.9,5.2c-2.7,1-5.1,2.7-7.1,4.8c-2,2.1-4.2,3.9-6.8,5.3c-1.1,0.6-2.2,1.5-2.7,2.6
			c-1.9,4.4-3.5,8.9-5.2,13.4c-0.4,1-0.3,2.3,1.3,3c0.8-0.4,1.8-0.8,2.7-1.4c3.4-2.6,7.3-3.9,11.5-4.6c3.2-0.5,6.3-1.1,9.4-1.8
			c3.7-0.8,7.3-0.9,10.9-0.2c1.7,0.3,3.5,0.4,5.2,0.5c9.6,0.5,17.6,4.3,24.1,11.3c1.2,1.3,2.1,2.8,3.9,3.7c4.5-1,8.6-3.1,12.8-4.9
			c0.6-0.3,1.1-0.7,1.6-1.1c4.6-3.8,8.7-8,12.1-12.9c3.8-5.4,7.6-10.7,11.4-16c0.8-1.2,1.8-2.3,2.8-3.2c1.9-1.8,4.2-3,6.9-2.9
			c7.1,0.1,12.8,3.2,16.2,9.3c2.4,4.2,2.2,8.9-0.5,13.3c-1.7,2.8-4.5,4-7.4,3.1c-4.6-1.3-9.2-2.9-11.9-7.4c-0.8-1.3-1.4-2.8-3-3.8
			c-2.3,2.6-3.7,5.4-3.7,8.7c0,2.6,0,5.1,0,7.7c0.1,5.2,2.5,9.5,5.4,13.6c0.6,0.9,1.7,1.4,2.6,2c3,2.1,6.5,2.6,10,3
			c2.4,0.3,4.8,0.4,7.1,0.1c6.1-0.8,11.8-2.9,17.3-5.6c4.1-2,7.4-5,10.4-8.4c2.1-2.4,3.8-5.1,4.7-8.3c1.6-5.7,3.1-11.4,2.6-17.4
			c-0.1-1.4,0-2.9,0-4.3c-0.5-7.5-2.1-14.5-6.7-20.7c-2.4-3.2-4.3-6.7-5.7-10.5c-0.8-2.1-2-4-3.7-5.6c-2.4-2.3-4.7-4.8-7.2-7
			c-1.5-1.4-3.3-2.5-5.1-3.5c-4.8-2.6-9.5-5.2-14.9-6.5c-1.5-0.4-2.9-1.4-4.4-2c-1.2-0.5-2.4-1.1-3.6-1.1
			c-6.1-0.1-12.1-0.1-18.4-0.1c2.7,0.5,5.3,0.6,7.6,1.4c2.4,0.7,4.7,2.1,7,3.1c1.3,0.6,2.7,1.1,4,1.6c4.9,2,8.1,6.1,11.5,9.9
			c0.3,0.4,0.5,0.8,0.7,1.3c1.4,4.4,2.8,8.9,1.8,13.6c-0.4,1.9-0.6,3.7-0.2,5.7c0.4,1.9-0.4,3.2-2,3.9c-1.2,0.5-2.4,0.8-3.7-0.1
			c0.4-3.9,0.8-7.8,1.1-11.7c0.3-3.4-0.2-6.9-1.9-9.7c-2-3.2-4.8-6-8.3-7.8c-3.3-1.6-6.7-3.1-10-4.6c-1-0.4-2.1-0.7-3.2-0.8
			c-3.8-0.4-7.6-0.8-11.5-1c-11.3-0.6-21.9,1.6-31.5,8c-5,3.4-10.2,6.5-15.3,9.9C993.9,331.4,992.5,332.6,990.9,333.8z M829,424.9
			c-1.2-1.1-2.7-0.9-4.1-1c-2.3-0.2-4.4-0.8-6.4-2c-2.7-1.6-4.1-4-4-7.2c0.1-3.1,1.1-6,3-8.4c2.8-3.5,6.4-3.6,9.4-0.4
			c1.1,1.1,2,2.4,3.1,3.7c0.4-1.3,0.7-2.4,1.1-3.4c0.3-0.8,0.8-1.4,2-0.8c0.2,0.8,0.5,1.7,0.6,2.6c0.4,2.5,2.3,4.2,5.8,3.5
			c2.4-0.5,5.2-2.4,7.5-5.2c-1-0.5-2-1-2.9-1.5c-6-3.2-8.2-7.8-6.8-14.3c0.8-3.8,2.6-6.9,7-7.5c0.3,0,0.5-0.4,0.8-0.7
			c-0.1-0.7-0.3-1.4-0.5-2.2c-3.4-0.5-5.5-2.8-6.8-5.5c-1.8-3.7-4.5-6.6-7-9.7c-1.2-1.5-2.7-2.7-4.5-3.5c-2.6-1-4.7-2.6-6.6-4.7
			c-0.7-0.8-1.4-1.8-2.7-1.5c-1.6,2.7-1.6,2.7-4.4,2.1c-0.9-0.2-1.9-0.5-2.8-0.4c-6.1,0.2-12,1.9-17.9,3.2c-0.8,0.2-1.5,0.5-2.2,0.9
			c-6.5,3.6-12.2,8.2-16.9,14c-1.4,1.7-2.6,3.7-3.7,5.6c-0.7,1.2-1.2,2.6-1.6,4c-0.5,1.6-0.3,3.1,1.2,4.3c1,0.8,1.9,1.8,2.6,2.8
			c3.8,4.9,8.7,9,11.6,14.6c0.2,0.4,0.6,0.7,0.9,1.1c1,1.6,2.1,3.2,3.1,4.8c1.5,2.4,2.9,4.9,4.6,7.8c0.5-1.1,0.9-1.6,1-2.1
			c0.1-1.6,0.3-3.2,0-4.8c-0.4-2.4,0.1-4.4,1.2-6.4c1.6-2.6,3-5.3,4.6-7.9c2.4-3.9,5.7-6.8,10-8.7c5.2-2.3,10.7-3,16.2-4.3
			c1.1-0.2,2.2-0.1,3.3,0c0.6,0.1,1.4,0.2,1.8,0.6c0.5,0.5,0.9,1.3,0.9,2c0,0.5-0.6,1.1-1.1,1.4c-0.5,0.3-1.2,0.3-1.8,0.5
			c-4.2,0.9-8.5,1.6-12.7,2.7c-3.7,0.9-7.7,1.8-10.2,4.9c-4.3,5.1-8.8,10.3-7.8,17.8c0.1,0.9-0.1,1.9-0.1,2.9
			c0.2,2.9,0.3,5.7,0.6,8.6c0.1,1.2,1.4,2.2,2.4,1.7c2.1-1.2,4.3-0.7,6.5-0.7c0.9-0.9,1.5-1.9,2.4-2.5c0.6-0.4,1.5-0.2,2.2-0.1
			c0.3,0.1,0.6,0.6,1,1c-0.3,0.6-0.7,1.1-0.9,1.7c-0.7,2.3-0.2,3.8,1.6,5c0.9,0.6,2,1,3.1,1.2c4.2,0.7,7.9-0.1,11.1-3
			C829.1,429.8,830,427.7,829,424.9z M728.4,394.9c-0.2,0.8-0.3,1.1-0.3,1.4c0,0.3,0,0.6,0,1c0,3.9-1.6,6.7-5.1,8.6
			c-1.1,0.6-2.2,1.4-3.1,2.2c-2.2,2-5,2.8-7.8,3.3c-3.9,0.7-6.9-0.9-9-4.1c-1.4-2.1-2.7-4.5-2.3-7.2c0.4-3-0.9-5.1-2.8-7.2
			c-3-3.3-4.4-7.5-4.2-11.9c0.3-5.1,0.3-10.3,2.5-15c0-0.1-0.2-0.2-0.2-0.3c-0.2,0.2-0.5,0.3-0.7,0.6c-2.4,3.4-4.7,6.9-7.1,10.3
			c-6.2,8.8-5.2,7.1-7.5,17.4c-0.1,0.5-0.3,0.9-0.3,1.4c-0.6,7.8-1.8,15.6,1.9,23.1c0.3,0.6,0.5,1.2,0.6,1.8c1,3.8,2.8,7.1,5.8,9.8
			c0.8,0.7,1.6,1.6,2.2,2.5c2.9,4.5,7.2,7.1,11.9,9.4c3.1,1.5,6.3,2.1,9.8,1.7c2.5-0.3,5.1-0.6,7.6-0.6c2.6,0,4.6-0.8,6.5-2.5
			c4.7-4,4.8-3.9,7.1-9.8c0.8-2.1,1.4-4.2,1.5-6.5c0.1-2.1,0.4-4.1,0.6-6.2c1-7.3-0.3-14-4.7-20c-0.5-0.6-0.9-1.3-1.4-1.9
			C729.6,395.6,729.2,395.4,728.4,394.9z M1001,430.7c0.4-5.3,1.2-10.7,3.8-15.8c2.7-5.3,6.3-9.5,11.4-12.7
			c-0.7-1.1-1.1-2.2-1.8-2.9c-4.9-4.9-10.6-8.1-17.6-8.9c-9.1-1.1-18.1-1.7-27.1,1c-0.2,0-0.3,0.1-0.5,0.1
			c-5.3,0.6-9.5,3.4-13.6,6.7c-0.6,0.5-1.2,1.2-1.4,1.9c-0.6,2.1-1.8,3.7-3.3,5.1c-1,0.9-1,2.3-0.9,3.6c0.1,1.1,0.1,2.3,1.5,2.6
			c0.2-0.1,0.4-0.1,0.4-0.2c0.4-1.2,0.7-2.4,1.1-3.6c0.8-2.4,1.5-4.9,2.5-7.2c0.7-1.6,2.1-2.5,3.9-2.3c1.7,0.2,3.1,1.2,3.5,2.8
			c1.3,4.6,1.8,9.1-1.4,13.2c-0.6,0.7-1.6,1.3-1,2.6c2,0.4,4,0.6,6.1-0.7c0.3-1.6,0.5-3.3,0.8-5.1c0.4-2.6,1.3-4.9,2.7-7.1
			c2.5-3.9,9.8-3.1,11,1.2c0.2,0.9,0.6,1.8,0.9,2.6c4.1,0.5,6.5,2.8,7.9,6.4c0.4,1.1,1.3,2.1,1.9,3c-0.6,2.2-1.2,4.3-1.6,6.5
			c-0.2,0.8,0.3,1.7,0.4,2.6c2.6,0.4,5.1-0.9,7.2,0.9c0.2,1.8-1,2.6-2.3,3.2c-1.1,0.6-2.4,0.8-3.6,1.3c-0.5,0.2-0.9,0.6-1.5,1.1
			C994,434.2,995.8,433.9,1001,430.7z M749.4,336.7c-3.4-0.7-5.8-0.3-8,0.7c-3.6,1.6-7.3,2.3-11.2,2.1c-2.3-0.2-4.3,0.7-6.3,1.8
			c-4.3,2.2-7.4,6-11.6,8.3c-0.3,0.1-0.5,0.4-0.7,0.7c-7.7,8.8-12.9,18.6-13.4,30.5c-0.1,3.3,0.6,6.3,2.6,9c0.5,0.7,1.4,1.1,2.1,1.8
			c1.5-2,2.7-4,4.3-5.5c1.6-1.6,3.5-2.8,5.2-4.2c2.9-2.5,6.2-3.9,10-4.3c1-0.1,2.1-0.6,3.3-0.9c0-1.8,0.1-3.4,0-5
			c-0.4-4.3,0.8-8.2,2.9-11.9c4.1-7.3,9-14,15.9-18.9C745.9,339.6,747.3,338.4,749.4,336.7z M899.5,361c0.7,3.4,0.3,6.2-1.5,8.7
			c-1.7,2.4-3.8,4.3-6.4,5.7c-1.1,0.6-2.4,1-3.6,1.2c-2.4,0.4-4.5-0.1-5.7-2.5c-0.5-1.1-1.3-1.7-2.3-2.3c-2.2-1.1-2.7-3.1-2.3-5.3
			c0.3-1.4,0.6-2.7,1-4c-2.8-1.2-4.5-1.5-6.2-1c-1,0.3-2.1,0.7-2.4,2.4c1.4,0.8,3,1.5,4.4,2.5c2.1,1.4,1.9,4.4-0.4,5.4
			c-1.3,0.5-2.8,0.7-4.2,0.8c-1.4,0.1-2.7-0.2-4.8-0.4c1.1,1,1.7,1.5,2.2,2c3.2,2.8,4.6,6.4,4.7,10.6c0,1.3,0,2.6,0,3.8
			c0,4.8-1.3,9.1-4.5,12.8c-2.8,3.2-2,8.1,1.3,10.6c1.6,1.2,3.4,1.7,5.4,1.6c2.1-0.1,4.1-0.5,5.7-2.4c-0.7-1.1-1.5-2.1-2-3.3
			c-0.6-1.3-1.1-2.7-1.2-4.1c-0.2-2.1,1.4-3.6,3.6-3.6c4.1-0.2,8.2,2.9,9.1,6.9c0.2,0.9,0.5,1.7,0.8,2.5c2.6,0.7,5,0.5,7.4,0.2
			c0.5-0.1,1-0.5,1.5-0.8c-1.5-2-3.2-3.6-4-5.6c-0.7-2-0.5-4.3-0.7-6.7c-1.2-0.3-2.3-0.6-3.3-0.9c-2.7-1-5.4-1.8-8-3.1
			c-2.5-1.2-4.5-3.1-6-5.4c-1.1-1.6-1.7-3.4-1.6-5.4c0.2-2.7,1.7-4.3,4.3-4.1c2.5,0.2,5,0.8,7.5,1.3c0.5,0.1,0.8,0.8,1.3,1.2
			c-2.2,2.6-5.4,1.3-7.8,2.3c0.6,2.8,1.4,3.9,4.1,5.5c3.5,2.2,6.4,2.9,9.4,2.3c-0.3-0.8-0.5-1.5-0.9-2.2c-0.8-1.8-0.9-3.7-0.7-5.7
			c0.4-3.9,2.5-5.7,6.3-5.6c5.1,0.2,9.7,4.5,10.3,9.7c0.2,1.5-0.4,3.2,1,4.7c3.5,0.9,6.8,0,9.9-2c1.4-0.9,2.2-2.3,2.2-4
			c0-2.7-1-4.6-3.2-5.4c-3.3,0.9-6.2,1.7-9,2.4c-3.7-4.3-3.9-6.4-1.5-10.9c0.7-1.2,1.4-2.4,2.1-3.6
			C907.9,364.4,904.6,362.4,899.5,361z M1055.5,506.1c0.7-1.6,1.7-2.9,0.9-4.8c-2.9,0.4-5.6,0.1-6.8-3.1c-1.1-2.9-0.3-5.4,2.8-8
			c-1.2-0.1-2.3-0.1-3.3-0.3c-1.5-0.2-2.6-1.3-2.6-2.4c0-1.3,0.8-2,1.9-2.5c0.4-0.2,0.9-0.2,1.4-0.4c2.2-0.6,3.1-2.1,3.2-4.2
			c0.2-5.3-1.7-9.3-7-11.4c-0.5,0.2-1.1,0.4-1.7,0.6c-2.5,0.8-5.3,0.9-7.4,3c-0.7,0.7-2.4,0.6-3.6,0.5c-2.1-0.2-3.9-1.3-5.5-2.7
			c-0.5-0.5-0.9-1.3-2.1-0.9c0,1.8,0,3.7,0,5.8c0.7-0.5,1.4-1.1,2.4-1.7c1.5,1.5,3.1,2.4,5.2,2.7c2.3,0.3,4.5,1.6,6.5,2.9
			c2.4,1.5,3,4.3,1.5,6.7c-0.7,1.2-1.9,2.1-2.9,3.1c-0.6,0.6-1.2,1.3-1.9,2c2.6,2.4,6.5,3,6.9,7.3c-0.9,0.1-1.8,0.4-2.5,0.2
			c-4.8-1.1-9-3.3-11.6-7.7c-1-1.8-2-3.6-3-5.4c-0.9-1.6-2.2-2.4-4.3-3.2c0.5,1.9,1,3.3,1.3,4.7c1.6,6.2,2.5,12.5,2.4,19
			c0,1.4,0,2.9,0.1,4.3c0,0.3,0.6,0.8,1,0.8c0.4,0,1-0.4,1.1-0.7c0.3-1.2,0.4-2.5,0.7-3.8c0.5-2.4,1.3-4.6,3.4-6.1
			c0.6-0.4,1.3-0.5,2.2-0.8c0.8,4.1-2.4,7.7-0.5,11.5c4.2,2.4,4.2,2.4,4.2,7.7c2.1,1.5,4.5,2.3,7,2.8c3.4,0.7,4.8-0.4,5.2-3.8
			c0.2-1.4,0.2-2.9,0.3-4.3c0.1-1.3,0.2-2.6,0.4-3.8c0.3-2,1.3-3.3,3.5-3.1C1054.5,506.4,1054.8,506.3,1055.5,506.1z M1066.5,365.4
			c0.5,2,1,4.2,1.7,6.3c1.6,4.6,5.1,7.1,9.6,8.5c2,0.6,3.5-0.1,4.3-2.1c1.2-2.8,1-5.7-0.6-8.2c-2.5-3.8-6.3-5.8-10.7-6.4
			C1069.1,363.3,1067.7,363.8,1066.5,365.4z M795,448.2c-1-3.8-1.1-7.5-0.5-11.1c0.1-0.5,0.1-1,0.1-1.4c0.2-4.5-0.3-5.1-4.7-5
			c-0.6,0-1.2,0.1-2.1,0.2c1,1.2,1.8,2.1,2.5,3.2c1.5,2.3,1.8,4.8,1,7.3c-0.1,0.5-0.8,1.1-1.2,1.2c-0.4,0.1-1.2-0.5-1.4-0.9
			c-0.5-1.3-0.8-2.8-1.3-4.1c-0.3-0.9-0.9-1.8-2.4-1.2c-1.1,4.2-1,8.6-0.1,13c0.2,1.2,1.2,2.3,2,3.2c1.1,1.3,2.4,1.3,3.7,0.1
			C792.1,451.2,793.5,449.7,795,448.2z M1013.4,435.6c0,1.3-0.2,2.4,0,3.4c0.4,1.9,1.7,2.6,3.6,2.2c2.5-0.5,4.8-1.6,6.8-3.4
			c2.3-2,2.6-4.8,2.1-7.5c-0.2-1.3-1.4-2.4-2.4-3.4c-0.8-0.8-1.8-1.9-3.3-1.2C1018.9,431.5,1018.9,431.5,1013.4,435.6z M831.7,643.1
			c-2.2,1.8-3.5,4.1-4.6,6.6c-1.9,4.2-3.9,8.4-5.5,12.7c-3.7,9.6-6.7,19.3-7.8,29.5c-0.3,2.9-0.5,5.9-0.1,8.8c0.5-2.3,1-4.7,1.2-7.1
			c0.5-5.9,1.9-11.6,3.9-17.2c1.7-5,3.5-9.9,5.4-14.8C826.5,655.4,829.2,649.2,831.7,643.1z M862.7,398.1c-0.3-0.4-0.7-0.9-1.2-1.3
			c-2-1.7-3.5-3.7-4.4-6.1c-0.7-1.8-1.8-2.9-3.6-3.5c-1-0.4-1.9-1.2-2.8-1.8c-0.5-0.3-0.9-1-1.5-0.3c1.4,2.6,3.1,4.9,4.1,7.6
			c1,2.6,1.3,5.5,1.9,8.4c1.2,0.7,2.4,0.6,3.6,0.1C860.3,400.4,862,400,862.7,398.1z M849,401.2c0.9-5.1-0.5-9.6-3.5-12.1
			c-0.9-0.8-2.3-0.5-2.8,0.7c-1,2.4-1.3,5-0.1,7.4C843.8,399.5,846,400.7,849,401.2z M1033.8,455.4c-1.7,0.1-2.5,0.7-2.9,2
			c-0.4,1.1,0,1.8,1.5,2.5c2.3,1.1,4.5,2.3,6.1,4.3c1,1.3,2.4,1.5,3.3,0.8c0.8-0.6,1-2.2,0.4-3.5c-0.3-0.6-0.5-1.2-1-1.6
			c-1.5-1.3-3.1-2.7-4.8-3.8C1035.6,455.6,1034.4,455.6,1033.8,455.4z M764.9,481c-0.8-1-1.5-2-2.4-2.9c-0.8-0.7-1.9-0.8-2.6,0
			c-2.4,2.4-4,5.3-4.7,8.7c-0.2,1.2,0.2,2.2,2,2.5C759.5,486.6,762.8,484.6,764.9,481z M828.1,419c-0.8-3.6-2.3-6.3-4.1-8.9
			c-0.4-0.6-1.2-0.8-1.7-1.2c-2,1.1-2.4,2.9-2.8,4.5c-0.5,2.2,0.3,3.7,2.3,4.6C823.6,418.8,825.5,419.2,828.1,419z M766.2,500.4
			c-0.2,0.1-0.6,0.5-1.1,1c-0.6-0.4-1.2-0.8-1.9-1.2c-1.1,3.5-0.8,4.1,2.1,4.7c1.4,0.3,2.6,0.4,4.1-0.2c1.8-0.8,3.9-0.9,6.1-1.4
			c-0.1-1.1-0.2-1.9-0.3-2.9C772.1,500.4,769.3,500.4,766.2,500.4z M906.6,397.3c-1.2-0.2-2.1-0.5-3-0.6c-1.4-0.1-2.6,0.2-3.2,1.5
			c-0.8,1.5-1,3.1,0.1,4.5c1.2,1.5,2.6,2.7,4.6,2.8C907.2,401.8,907.2,401.8,906.6,397.3z M774.9,487.2c-5.7-2.8-7.2-2.5-8,1.6
			c2.4,1,4.8,2.1,7.3,3.2C775.3,490.6,775.2,489.1,774.9,487.2z M778.7,436.8c-1.4,1.9-2.1,4.1-2.5,6.4c-0.3,1.2-0.2,2.5-0.2,3.8
			c0.1,0.9,0.7,1.4,1.6,1.4c0.9,0,1.6-0.5,1.6-1.4c0.1-3.3,0.1-6.6,0.1-9.9C779.4,437,779.1,436.9,778.7,436.8z M904.3,387.5
			c0-2.3-1.9-4.5-4.3-5c-0.9-0.2-1.9,0.6-2.1,1.5c-0.3,2.3,0.9,4.5,2.9,5.5C902.4,390.2,904.3,389.1,904.3,387.5z M862.2,377.3
			c-2.7,5.3-1,7.4,3.7,6.6c0.1,0,0.3-0.2,0.4-0.3c0.8-1.5-0.1-2.7-0.9-3.9C864.7,378.4,863.7,377.4,862.2,377.3z M985.4,422
			c-1.7,0.3-3.1,0.5-4.4,0.9c-0.6,0.2-1.1,1.1-1.3,1.7c-0.3,1,0.2,1.9,1.2,2.3c2.4,0.8,4.9,0.5,4.8-2.9
			C985.8,423.6,985.7,423.1,985.4,422z M861.8,388.8c0.8,2.4,1.7,4.2,4.5,5.4c0.4-2.3,1.1-4.2-0.1-6.4
			C864.8,388.1,863.4,388.4,861.8,388.8z M773,464.6c2.3,1.3,4,2.2,5.6,3.1c0.6,0.3,1.3,0.4,1.6-0.3c0.2-0.4,0.2-1.1-0.1-1.3
			c-1.2-1.2-2.5-2.4-3.9-3.4c-0.4-0.3-1.3-0.3-1.8-0.1C773.9,462.9,773.6,463.7,773,464.6z M888.5,370.9c0.1,0.1,0.2,0.3,0.3,0.4
			c0.9-0.6,1.9-1.1,2.7-1.8c1.3-1.1,2.7-2.3,3-4.2c0.1-0.4-0.1-1-0.4-1.3c-0.3-0.2-0.9-0.1-1.2,0.1c-0.5,0.4-0.9,0.9-1.2,1.4
			C890.6,367.3,889.6,369.1,888.5,370.9z M772.4,517.7c1.2,2,2.1,3.3,4.2,3.3c1-1.6,1-3.3,1.5-5.2
			C776.1,516.5,774.5,517,772.4,517.7z M803.3,441.5c-0.7-1.5-1.9-2.6-3.8-3.4c-0.3,2.2-0.7,4,0.3,6
			C801.3,443.7,802.5,443.2,803.3,441.5z M973.3,412.2c1.3-0.7,2.1-1.9,2.7-3.2c0.2-0.6,0.2-1.2,0.1-1.9c0-0.2-0.4-0.5-0.6-0.6
			c-0.3-0.1-0.7-0.1-0.9,0.1c-1.5,1.5-2.3,3.4-1.8,5.6C972.8,412.2,973.1,412.1,973.3,412.2z M936.2,380c-0.4-0.8-0.6-1.6-1-2.2
			c-0.2-0.3-0.9-0.7-1.1-0.6c-0.5,0.2-1.2,0.7-1.3,1.1c-0.1,0.8-0.1,1.9,0.4,2.6c0.3,0.4,1.4,0.6,2,0.5
			C935.6,381.3,935.9,380.5,936.2,380z M855.7,375.8c-1.9,1.9-2.1,3.5-1.4,5.2c0.1,0.2,0.5,0.5,0.7,0.5c0.2,0,0.7-0.1,0.8-0.3
			C856.5,379.7,856.6,378.1,855.7,375.8z M833.8,418.5c2.3-0.8,2.3-0.8,3.2-2.2c-0.7-0.3-1.5-0.6-2.2-0.9c-0.8-0.3-1.6-0.6-2.9-1.2
			C832.6,416,833.2,417.1,833.8,418.5z M775.8,509.6c-1.6-0.7-2.8-0.8-3.9,0.1c-0.4,0.3-0.5,1.1-0.4,1.7c0,0.3,0.7,0.7,1,0.7
			C774,512,775.3,511.6,775.8,509.6z M1028.8,519.1c1.4,3.2,2.4,3.7,5.6,2.3C1032.4,520.6,1030.7,519.9,1028.8,519.1z M981.7,416.6
			c0.4,0.2,0.7,0.5,1.1,0.6c0.3,0.1,0.6-0.1,0.9-0.2c0.8-0.4,1.3-1,1-1.9c-0.2-0.5-0.6-1.3-1.1-1.4c-0.9-0.2-1.3,0.7-1.6,1.4
			C981.9,415.5,981.8,416,981.7,416.6z M1008.4,419.5c1.3-0.5,1.8-0.6,2.1-0.9c0.3-0.2,0.7-0.7,0.7-1c0-0.3-0.4-0.9-0.8-0.9
			c-0.3-0.1-0.8,0.2-1.1,0.5C1009.1,417.7,1008.9,418.3,1008.4,419.5z M883,366.5c0.3,0.2,0.6,0.3,0.8,0.5c0.4-0.5,0.9-1.1,1.3-1.7
			c0.1-0.2-0.1-0.6-0.3-0.7c-0.2-0.1-0.7-0.1-0.8,0.1C883.6,365.2,883.3,365.9,883,366.5z M959,406.2c-0.7,1.2-0.9,1.5-1,1.9
			c-0.1,0.5-0.7,1.1,0.5,1.6C958.6,408.8,958.8,407.9,959,406.2z M915.1,373.6c-0.3-0.1-0.9-0.4-1.1-0.2c-0.4,0.4-0.5,0.9-0.7,1.4
			c0.3,0.1,0.6,0.2,0.8,0.1C914.6,374.7,915.3,374.6,915.1,373.6z M1008.1,430.3c0.2-0.4,0.5-0.8,0.6-1.2c0-0.1-0.3-0.4-0.5-0.6
			c-0.3,0.3-0.6,0.7-0.8,1C1007.4,429.7,1007.8,429.9,1008.1,430.3z M805.1,434.8c-0.3-0.3-0.5-0.7-0.8-0.9c0,0-0.3,0.2-0.5,0.4
			c0.3,0.3,0.6,0.6,0.9,0.8C804.7,435.1,804.9,435,805.1,434.8z M1008,436.5c-0.3-0.2-0.6-0.5-0.9-0.7c0,0-0.3,0.2-0.3,0.3
			c0.2,0.3,0.3,0.7,0.5,1C1007.5,436.9,1007.6,436.7,1008,436.5z M781.2,453.9c-0.4,0.3-0.5,0.3-0.6,0.4c0.2,0.3,0.5,0.6,0.7,0.9
			c0,0,0.5-0.3,0.5-0.3C781.6,454.5,781.4,454.1,781.2,453.9z M774.7,471.9c-0.1-0.2-0.1-0.6-0.3-0.7c-0.2-0.1-0.5,0.1-0.7,0.2
			c0.1,0.2,0.1,0.6,0.3,0.7C774.1,472.2,774.4,472,774.7,471.9z M773.4,456.8c0.2-0.1,0.4-0.2,0.6-0.4c-0.2-0.2-0.3-0.3-0.5-0.5
			c0,0-0.3,0.2-0.3,0.2C773.2,456.4,773.3,456.6,773.4,456.8z M883.8,407.1c0-0.1,0-0.3-0.1-0.4c-0.1-0.1-0.3-0.1-0.4-0.2
			c0,0.2,0.1,0.4,0.1,0.6C883.5,407.1,883.7,407.1,883.8,407.1z"/>
		<path d="M501.3,640.6c-0.2-3.6-1.5-6.9-2.8-10.1c-6.8-16.8-18.4-29.5-33.7-38.8c-14.4-8.7-30.1-13.1-46.9-13.5
			c-14.7-0.3-28.6,2.5-41.8,8.9c-14,6.8-25.3,16.7-33.2,30.3c-4.6,8-7.5,16.6-8.4,25.8c-0.1,1.2-0.4,2.5-0.9,3.7
			c-0.3,0.6-1.2,1-1.9,1.1c-1,0.1-1.9-0.7-2.1-1.6c-0.2-1.6-0.3-3.2,0-4.7c0.9-4.4,1.9-8.7,3-13.1c0.3-1.2,0.6-2.4,0.9-3.9
			c-3.7-1.2-7.4-1.7-11-1.8c-5.5-0.2-10.8-1.3-16.1-2.5c-2.5-0.6-5-0.8-7.6-0.2c-0.9,0.2-1.9,0.2-2.8,0.4c-2.5,0.3-5.1,0.6-7.6,1
			c-5.8,0.9-10.4,4.2-14.3,8.2c-4.4,4.5-9.6,6.8-15.8,6.8c-6.2,0-12.5,0.3-18.7-0.6c-2.1-0.3-4.1-0.6-6.1-1.1
			c-6.5-1.6-13-3.3-19.5-4.9c-4.8-1.2-9.5-2.8-14-4.8c-6-2.6-11.8-5.7-18.5-6.5c-0.8-0.1-1.5-0.4-2.3-0.7
			c-7.3-2.8-14.8-3.7-22.5-3.9c-6.1-0.2-12.2-0.2-18.2,0.9c-3.3,0.6-6.5,1.4-9.7,2.7c-4.3,1.7-8.7,3.4-13.1,4.6
			c-10.1,2.8-19.4,7.5-28.6,12.2c-2.7,1.4-5.5,2.4-8.5,3c-4.6,1-9.1,1.2-13.8,1.1c-4.7-0.1-9.2-1.2-13.7-2.2
			c-3.3-0.8-6.1-2.7-8.4-5.3c-1.4-1.5-2.8-3-4.4-4.4c-1-0.9-1.7-1.9-1.8-3.2c-0.3-3.3-0.7-6.7-0.8-10c-0.4-11.7-0.3-23.4,1-35
			c2.3-19.8,7-39,14.6-57.5c10-24.4,23.8-46.3,41.5-65.8c28-30.8,62-52.6,100.9-67.1c19.9-7.4,40.4-12.4,61.3-15.2
			c14.8-2,29.6-3.1,44.5-2.8c45.7,0.8,89.4,10.6,130.9,30c35.8,16.8,67.3,39.4,94,68.5c24.7,26.8,43.5,57.2,55.3,91.9
			c4.9,14.4,8.4,29.2,10.3,44.3c0.4,3.2,0.8,6.3,1.2,9.5c0.1,0.9,0.2,1.9,0.1,2.9c-0.1,0.7-0.6,1.7-1.1,2c-2.2,0.9-4.5,2.1-6.9,1
			c-2.3-1-4.6-2-6.8-3.5c-2.7-1.9-5.7-3.8-8.8-4.6c-4.9-1.3-9.8-1.1-13.9,2.7c-0.7,0.7-1.5,1.2-2.2,1.8c-3.9,3.6-8.6,4.1-13.5,3.2
			c-3.8-0.7-7.6-1.5-11.1-3c-5.6-2.4-11.4-2.9-17.4-2.9c-3.8,0-7.7,0.3-11.5,0.6c-0.4,0-0.8,0.4-1.3,0.6c-0.1,1.8,1.1,3,1.9,4.3
			c3.1,5.5,5.5,11.2,7.1,17.3c0.3,1.2,0.5,2.5,0.5,3.8c0,1.7-2,2.8-3.5,1.6C502.2,641.4,501.7,641,501.3,640.6L501.3,640.6z
			 M167.2,507.1c1.1-1.6,2.3-3.1,3.1-4.8c2.8-5.7,7.5-9.9,11.5-14.6c0.4-0.5,1-0.9,1.5-1.2c3.6-2.4,7.2-4.8,10.9-7
			c2.9-1.8,5.9-3.1,9.3-3.6c2-0.3,4-1.1,6-1.8c2.5-0.9,4.9-1.2,7.5-1c1.6,0.1,3.2,0.2,4.8-0.1c2.4-0.4,4.8-0.1,7.1,0.5
			c1.5,0.4,3.1,0.7,4.7,0.9c6.9,0.9,13.1,4.1,19.5,6.3c0.3,0.1,0.6,0.3,0.8,0.5c5.9,3.7,10.9,8.4,14.5,14.4c0.8,1.4,1.8,2.6,2.8,3.9
			c5,6.1,9.1,12.8,12.4,19.9c5.2,11.1,8.1,22.9,8.3,35.2c0,1.7,0.1,3.6,0.9,5.1c0.8,1.5,2.8,1.1,4.4,1.5c3.1,0.8,4.6,3.2,4,6.5
			c-0.4,1.9-1,3.7-1.1,5.6c-0.2,5.1-0.2,10.2-0.2,15.4c0,0.9,0.5,1.7,0.8,2.9c2.3-0.5,4.3-0.8,6.3-1.3c6.1-1.5,12-1.3,17.5,2.2
			c0.7,0.4,1.4,0.9,2.1,1.2c0.7,0.3,1.4,0.3,2.5,0.5c-0.1-3.6-0.6-6.7-1.5-9.8c-0.5-2-1-4-1.3-6.1c-0.5-3.2-0.8-6.3-1.3-9.5
			c-0.4-2.7-0.9-5.4-1.3-8c-0.3-2.3,0.5-4,2.5-5.3c2.4-1.4,4.9-2.3,7.7-2.2c2.2,0.1,4.5,0.3,6.8-1.1c0.3-1.9,0.6-4,0.8-6
			c0.2-1.7,0.3-3.5,0.5-5.3c1.1-9.6,4.2-18.7,7.3-27.8c0.5-1.5,1.3-2.9,2-4.3c0.8-1.6,1.8-3,2.5-4.7c4.1-10.5,12.2-17.8,20-25.4
			c0.7-0.7,1.5-1.1,2.3-1.7c2.4-1.6,4.7-3.3,7.2-4.8c1.8-1,3.7-2.2,5.6-2.5c4.8-0.7,9.4-1.8,14-3.2c0.8-0.2,1.5-0.4,2.3-0.5
			c4.8-0.6,9.5-1.3,14.3-1.6c5.7-0.4,11.5-0.8,16.8,2.3c0.8,0.5,1.8,0.6,2.7,0.9c1,0.4,2,0.9,3,1.5c1.9,1.2,3.7,2.5,5.5,3.8
			c1,0.8,2,1.6,2.8,2.6c3.1,3.6,7.2,6.4,8.9,11.1c0.1,0.1,0.2,0.3,0.3,0.4c3.5,3.3,5.8,7.7,9.6,10.7c0.9,0.7,1.4,1.7,2.2,2.5
			c0.6,0.7,1.3,1.3,1.7,1.7c4.8-0.9,9.2-1.9,13.6-2.5c2.8-0.4,4.3,1.2,3.7,4c-1,4.3-0.3,8.2,1.6,12.1c0.6,1.3,1.1,2.7,1.4,4.1
			c0.4,2.1-0.6,3.7-2.8,4.3c-1.5,0.5-3.2,0.5-4.3,2.1c0.1,0.5,0.2,1.1,0.4,1.7c1.1,4.2,2.4,8.3,3.3,12.5c0.9,4,1.4,8.2,2.4,12.2
			c0.9,4.1,1.4,8.2,1.5,12.4c0.1,3.4,0.4,6.7,0.5,10.1c0,2.9,0,5.8-0.3,8.6c-0.5,4.8-1.5,9.5-2,14.3c-0.3,2.9-0.6,5.7-2.9,8.1
			c1.1,1.4,2.1,2.6,2.8,3.4c1.8,0,3.1-0.2,4.3,0c2.7,0.6,5.4,0.2,8.1-0.1c6.9-0.8,13.7-0.2,20.4,1.6c4.3,1.2,8.6,2.5,12.9,3.8
			c4.4,1.4,8,0.4,11.6-2.5c6.3-5.2,6.4-5.1,14.2-5.6c0.3,0,0.6-0.1,1-0.1c1.9,0.3,4,0.2,5.6,1c3.4,1.7,7.1,2.9,10.1,5.4
			c1.6,1.4,3.4,2.2,5.7,2.4c0.1-0.8,0.3-1.5,0.2-2.1c-0.5-4.8-0.9-9.6-1.7-14.3c-4.6-27.4-13.8-53.2-27.3-77.4
			c-18.9-33.9-44.4-62.1-75.5-85.2c-31.9-23.8-67.3-40.6-105.7-50.8c-21.6-5.7-43.5-9.1-65.8-10.2c-11.3-0.6-22.7-0.3-34,0.4
			c-17.4,1.2-34.7,3.8-51.6,8c-43,10.8-81.4,30.4-114,60.6c-20.3,18.8-36.6,40.6-48.7,65.5c-16.5,34-23.1,69.9-20.8,107.6
			c0.2,3.2,0.8,6,3.5,8.1c0.9,0.7,1.3,1.9,2.2,2.6c1.6,1.3,3.2,2.8,5.1,3.4c3.5,1.1,7.1,1.9,10.8,2.1c5.2,0.4,10.6,0.5,15.7-1
			c2-0.6,4-1.2,5.8-2.1c4.6-2.2,9.1-4.7,13.8-6.8c4.4-2,8.9-3.6,13.4-5.2c5.1-1.8,10.4-3.2,15.4-5.2c4.5-1.8,9.1-2.9,13.9-3.5
			c3.7-0.4,7.3-0.5,11-0.8c1.2-0.1,2.5-0.3,3.6-0.5c1-2.2,0.6-4.1,0.3-5.9c-1.5-7.9-1.8-15.9-2.6-23.8c-0.2-2.5-0.8-5.1-0.8-7.6
			c0-4,0.3-8,0.7-11.9c0.8-8.1,2-16.2,4.5-24c0.8-2.4,1.4-4.9,2-7.4c0.2-0.9,0.1-1.8,0.2-2.8c-2.2-0.6-4.1-0.5-5.9-0.1
			c-0.6,0.1-1.2,0.5-1.8,0.6c-2.3,0.5-3.9-0.8-3.5-3.1c0.9-5.7,1.9-11.4,2.9-17c0.2-0.9,0.5-1.9,0.9-2.7c0.7-1.4,2.2-2.2,3.6-1.5
			c2.1,1,4.3,1.1,6.5,1.5C164.5,503,167,503.8,167.2,507.1c-1.6,0.9-3.1,1.2-5,0.6c-1.5-0.4-3.1-0.4-4.7-0.3c-0.6,0-1.4,0.7-1.8,1.2
			c-0.5,0.8-0.9,1.8,0.2,2.5c3.3-0.6,6.5-1.1,10-1.7C166.3,508.7,166.7,507.9,167.2,507.1z M285.9,564c0.9-2,2-3.7,1.9-6
			c-0.5-8.8-1.1-17.5-3.7-26c-2.7-8.5-6.6-16.3-11.5-23.6c-2.9-4.4-6.1-8.6-9.2-12.8c-4.3-5.7-9.2-10.7-16.4-12.5
			c-0.6-0.2-1.2-0.4-1.8-0.7c-2.8-1.7-5.9-2.4-9-3c-3.1-0.5-6.3-1.5-9.4-1.7c-4.6-0.3-9.2,0-13.9,0c-0.5,0-0.9,0.2-1.4,0.4
			c-3.1,0.9-6.1,1.7-9.2,2.7c-1.7,0.5-3.3,1.2-4.8,2.1c-2.7,1.6-5.3,3.5-8.1,5.2c-6,3.5-9.8,9.1-13.7,14.5c-1.4,2-2.7,4.3-3.3,6.8
			c2.2,1.4,2.2,1.5,3.5,1.4c3.8-0.2,7.3,0.6,10.4,2.8c0.8,0.5,1.8,0.8,2.6,1.2c8.1,3.8,15,9,20.2,16.5c2.4,3.6,5,7,7.4,10.6
			c1.2,1.8,2.4,3.8,3.5,5.7c3.7,6.5,7.9,12.7,10.7,19.7c0.1,0.3,0.3,0.5,0.5,0.8c3.9,6.6,8,13.1,11.5,19.9
			c3.4,6.7,8.7,11.6,14.7,15.5c6,3.9,12.3,7.5,19.3,9.3c3,0.8,5.9,1.2,9.1-0.1c0.3-2.6,0.8-5.1,0.9-7.6c0.4-11.2,0.7-22.4,1-33.5
			C287.9,568.9,287.8,566.2,285.9,564z M350.9,597.8c1-1.2-0.1-1.6-0.3-2.3c-0.4-1.5,0.1-2.8,1.5-3c4.3-0.4,7.3-3.2,10.4-5.7
			c3.5-2.8,6.9-5.6,10.1-8.7c3.7-3.6,6.8-7.7,10-11.5c2.8-3.3,5.1-6.9,7.7-10.4c0.6-0.8,1.3-1.4,1.9-2.1c1.9-2.2,3.8-4.3,5.7-6.5
			c1.2-1.5,2.3-3.1,3.7-4.4c5.8-5.8,11.4-11.7,18.4-16.1c0.9-0.6,1.9-1.3,2.7-2c4.5-4.2,9.7-7.2,15.2-10c2.2-1.1,4.3-2.1,6.7-2.5
			c1.1-0.2,2.3-0.4,3.1-1.1c2.8-2.5,6.1-3.4,9.7-3.4c0.6,0,1.3-0.1,1.9-0.3c3.3-1.1,6.6-1.1,9.9-0.2c0.7,0.2,1.5,0.5,2.2-0.7
			c-2-2.5-3.8-5.3-6.1-7.7c-3.3-3.4-6.4-7.1-9.5-10.7c-0.5-0.6-0.9-1.3-1.2-2.1c-0.8-2-2.1-3.5-3.8-4.8c-1-0.7-1.8-1.8-2.7-2.7
			c-0.8-0.8-1.4-1.8-2.3-2.4c-4.1-2.5-7.6-5.7-12.5-6.9c-2-0.5-3.9-1.2-6.1-1.2c-9.9,0-19.8,0.4-29.3,3.9c-1.2,0.4-2.5,0.6-3.8,0.7
			c-3.9,0.3-7.5,1.4-10.5,4.2c-0.8,0.8-1.8,1.3-2.8,1.9c-6.3,4-11.2,9.5-15.9,15.1c-5.1,6-7.7,13.6-11.2,20.6
			c-0.1,0.3-0.2,0.6-0.3,0.9c-1,3.2-2.1,6.4-3,9.6c-3.1,10.7-4.9,21.5-4.2,32.6c0.5,9.2,1.4,18.5,2.3,27.7c0.3,3.5,0.9,7,1.5,10.4
			C350.1,596.7,350.5,597.2,350.9,597.8z M160.8,608.3c3.5,1.5,6.7,1.7,9.8,2.2c2.5,0.4,5,1,7.5,1.6c2.8,0.7,5.5,1.5,8.3,2.3
			c1.1,0.3,2.2,0.5,3.2,0.9c4,1.6,8,3.2,11.9,5c4.8,2.2,9.8,3.8,15,5c5.8,1.3,11.4,2.9,17.2,4.4c1.7,0.4,3.4,0.8,5.1,1.1
			c7.1,1.4,14.3,0.8,21.5,0.7c3.6,0,6.7-1.8,9.4-4.2c1.5-1.4,3-2.8,4.6-4.1c2.1-1.7,4.3-3.2,6.7-4.9c-5.3-0.9-10.2-2.5-14.6-4.8
			c-6.9-3.6-13.9-7.3-19.5-13c-2.6-2.6-5-5.4-6.8-8.6c-1.5-2.7-3.1-5.2-4.6-7.9c-4.2-7.4-8.8-14.5-12.1-22.3c-0.7-1.7-1.9-3.3-2.9-5
			c-1.4-2.3-2.9-4.6-4.3-6.9c-0.7-1.2-1.3-2.6-2.1-3.7c-3.4-4.7-6.8-9.3-10.3-13.9c-2.5-3.3-5.4-6.4-9-8.5c-4.4-2.6-9-4.9-13.5-7.2
			c-0.7-0.4-1.5-0.5-2.3-0.6c-2.5-0.3-5.1-0.6-7.6-0.8c-1.8-0.2-2.6,0.3-3.4,2c-0.8,1.9-1.6,3.8-2.2,5.8c-2.3,8.1-4.8,16.2-6.7,24.5
			c-1.2,5.3-1.7,10.7-2.2,16.1c-0.3,3.6-0.1,7.3,0.1,11c0.1,2.9,0.5,5.7,0.9,8.6C158.9,591.4,159.8,599.7,160.8,608.3z M487.3,599.1
			c0.7-4.3,1.5-8.4,2-12.5c0.4-3.2,0.8-6.4,0.8-9.5c0-4.5-0.3-9-0.6-13.4c-0.2-3.2-0.6-6.4-1.1-9.5c-0.5-3-1.2-6-1.7-9
			c-1.4-8.4-3.7-16.5-7.5-24.2c-1-2-2.1-3.9-3.3-5.9c-0.7-1.2-1.7-1.9-3.1-2c-4.7-0.5-9.4-2-14.2-0.1c-0.7,0.3-1.6,0.2-2.4,0.2
			c-1.9-0.1-3.4,0.6-4.8,1.8c-1.6,1.4-3.5,2.3-5.6,2.6c-2.5,0.3-4.5,1.4-6.7,2.5c-4.8,2.3-9.2,5.1-13.2,8.7c-1.1,1-2.2,1.8-3.5,2.6
			c-5.3,3.4-9.9,7.6-14.2,12.2c-4.9,5.2-9.6,10.7-14.3,16.1c-0.3,0.4-0.5,0.8-0.8,1.2c-3.4,4.4-6.9,8.8-10.3,13.3
			c-1.3,1.7-2.9,3.2-3.9,6.3c9.5-3.8,18.7-5.9,28.1-6.8c9.5-0.9,18.9-0.2,28.2,1.6c9.3,1.8,18.2,4.9,26.6,9.3
			c8.4,4.4,16,9.9,22.8,16.6C485.8,600.3,486.6,599.6,487.3,599.1z M334.7,618c-0.7-2.3-1.5-4.3-1.9-6.5c-0.5-2.2-0.6-4.4-0.9-6.6
			c0-0.3-0.1-0.6-0.2-0.9c-0.4-1.3-1-2.2-2.3-2.9c-2.4-1.3-4.7-2.7-7-4.2c-3.1-2-6.4-3-10-2.5c-3.5,0.5-6.9,1.2-10.3,2.1
			c-1.8,0.5-3.1,1.8-3.2,3.8c-0.1,4.2-0.1,8.3,0,12.5c0,1.6,0.8,2.2,2.4,2.5c2.4,0.4,4.8,0.5,7.1,1.1c7,1.8,14.2,2,21.3,3
			c1.1,0.2,2.2,0,3.3-0.2C333.7,619,334.1,618.4,334.7,618z M340.9,558.5c-3.3-0.8-6.5-0.6-9.6-0.1c-1.8,0.3-2.5,1.5-2.3,3.6
			c0.7,4.7,1.3,9.5,2.1,14.2c1.1,6.6,2.3,13.2,3.7,19.8c1,4.7,2.4,9.3,2.7,14.1c0.1,1.1,0.2,2.3,1.9,2.9c1.9-2.2,3.3-4.9,5.2-7.1
			c1.3-1.5,1.5-3.1,1.1-4.9c-0.5-2.3-1-4.7-1.3-7.1c-0.6-4.6-1-9.2-1.4-13.8c-0.6-6-1-12.1-1.5-18.1
			C341.4,560.7,341.1,559.7,340.9,558.5z M292.3,565.5c-0.6,16.9-1.2,33.3-1.7,50.1c0.9-0.1,1.8,0,2.3-0.4c0.5-0.4,0.9-1.3,0.9-2
			c-0.1-8.3,0.1-16.6,0.9-24.9c0.6-7-0.3-14.1,1.2-21c0.1-0.3-0.2-0.6-0.3-1.1C294.7,566,293.8,565.8,292.3,565.5z M485.2,511.8
			c-0.2-2.4,0-4.6-0.8-7c-2.2,0.3-4.2,0.5-6.2,0.8c-0.7,0.1-1.1,1.2-0.8,2c0.2,0.4,0.3,1,0.7,1.2
			C480.1,510.4,482.2,511.6,485.2,511.8z M154.3,519.2c2.4,0,3.9,0.2,5.2-0.1c1-0.2,2-0.9,2.8-1.5c0.4-0.3,0.6-1.2,0.4-1.7
			c-0.2-0.4-1.1-0.8-1.5-0.7c-1.7,0.4-3.3,0.9-4.9,1.6C155.7,517.1,155.3,517.9,154.3,519.2z M483.1,517.6c-0.1,0.1-0.3,0.2-0.4,0.4
			c0.2,0.5,0.4,1,0.8,1.5c0.1,0.2,0.5,0.2,0.8,0.3c0-0.4,0.2-0.9,0-1.1C483.9,518.2,483.5,517.9,483.1,517.6z"/>
		<path d="M501.2,640.6c0.5,1.7,1,3.4,1.3,5.1c0.8,3.7,1.6,7.5,2.3,11.3c0.2,0.9,0.1,1.9,0,2.9c-0.1,1.3-1.1,2.2-2.1,2.3
			c-1.1,0.1-2.1-0.7-2.4-1.9c-0.2-0.9-0.3-1.9-0.4-2.8c-0.9-8.7-3.8-16.8-8.5-24.2c-4.3-6.9-9.6-12.8-15.8-17.9
			c-14.3-11.8-30.7-18.8-49-21.4c-14.3-2.1-28.4-1.4-42.2,3c-11,3.5-20.7,9.1-28.6,17.7c-8,8.8-12,19.1-12.6,30.9
			c-0.1,1.4,0.2,2.9,0.2,4.3c0,1,0.1,1.9-0.1,2.8c-0.2,1-0.8,1.7-1.9,1.8c-1.1,0.1-1.9-0.4-2.3-1.4c-0.3-0.9-0.5-1.8-0.6-2.8
			c-1-14.1,3-26.5,12.1-37.3c7.4-8.8,16.6-14.9,27.2-19c14.4-5.6,29.4-7.2,44.8-5.6c16.5,1.8,31.8,6.9,45.9,15.7
			c13.6,8.5,24.4,19.6,31.2,34.3C500.2,639,500.8,639.8,501.2,640.6C501.3,640.6,501.2,640.6,501.2,640.6z"/>
		<path d="M892.3,588.8c-1.3,1.2-2.4,2.1-3.5,3.1c-4.6,4-10.2,4.2-15.8,3.7c-0.6-0.1-1.2-0.5-1.7-0.8c-0.8-0.6-1.3-1.5-1-2.5
			c0.3-1,1.1-1.6,2.2-1.6c2.1,0,4.1,0,6.2,0c3,0,5.6-1.2,7.7-3.3c0.9-0.9,1.9-1.7,2.9-2.5c2-1.4,4.1-1.7,6.3-0.4
			c1.5,0.9,3.1,1.8,4.5,2.8c2.9,2.1,6.1,3.2,9.8,3.4c6.1,0.3,11.8-0.6,16.9-4c3.6-2.4,7.2-2.3,10.8-0.2c0.6,0.3,1.1,0.7,1.6,1
			c4.4,2.8,9.1,4.6,14.5,4.3c0.3,0,0.6,0,1,0c1.5,0.1,2.3,0.7,2.5,1.7c0.2,1.3-0.7,2.7-2,2.8c-2.2,0.1-4.5,0.1-6.7-0.1
			c-3.7-0.4-7-2.1-10.3-3.8c-0.9-0.4-1.7-0.9-2.5-1.4c-2.3-1.3-4.4-1.4-6.7,0.1c-6.5,4.2-13.7,5.2-21.2,4.4
			c-3.9-0.4-7.4-1.8-10.6-4.1c-0.9-0.7-1.8-1.2-2.8-1.8C893.8,589.3,893.2,589.2,892.3,588.8z"/>
		<path d="M942.7,558.1c-0.3-0.1-1.2-0.2-1.9-0.5c-5.1-2.5-9.4-6-12.5-10.8c-0.2-0.3-0.3-0.6-0.4-0.9c-0.7-1.4-0.6-2.4,0.2-3
			c0.9-0.7,2.2-0.5,3.4,0.7c1.4,1.5,2.7,3.1,4.3,4.5c2.5,2.2,5.1,4.4,8.4,5.4c1.6,0.5,2,1.3,1.8,2.4
			C945.6,557.2,944.5,558.1,942.7,558.1z"/>
		<path d="M874.3,558.6c-0.6-0.4-1.4-0.6-1.6-1.1c-0.3-0.7-0.3-1.6,0-2.2c0.5-0.8,1.3-1.4,2.1-1.9c4.6-3.2,9-6.6,12.4-11.1
			c0.6-0.7,1.2-1.5,2.4-1.2c0.8,0.2,1.2,1.6,0.6,3c-0.7,1.6-1.5,3.2-2.6,4.5c-2.9,3.4-6.3,6.3-10.1,8.7
			C876.5,557.9,875.4,558.2,874.3,558.6z"/>
		<path d="M1025.4,709.2c0.1,1.3,0.2,3.1,0.5,4.8c1.4,6.9,3.3,13.7,6.2,20.1c1.3,2.9,2.9,5.7,4.6,8.4c4.3,6.5,10.4,10.2,18.2,11.2
			c2.2,0.3,4.4,0.7,6.6,1.2c0.5,0.1,1.2,0.9,1.2,1.3c-0.1,0.7-0.6,1.5-1.1,1.9c-0.6,0.4-1.5,0.6-2.3,0.5c-4-0.5-8-0.8-11.7-2.2
			c-5.7-2.2-10.4-5.6-13.9-10.6c-2-2.9-3.8-6-5.2-9.1c-3.7-7.9-6.1-16.1-7.6-24.7c-0.4-2.2-0.6-4.4,0.2-6.6c0.4-1.2,1.4-2,2.4-2
			c1.2,0,2.2,1.1,2.3,2.6c0,0.5,0,1,0,1.4C1025.7,707.8,1025.6,708.3,1025.4,709.2z"/>
		<path d="M944.2,753.3c-0.1,0.5-0.1,1.3-0.3,2.1c-1.2,4.2-5.2,5.4-8.6,2.7c-3.7-3-4.6-9.7-1.7-13.5c1.7-2.3,4.6-2.6,6.6-0.5
			C942.6,746.6,944.2,749.5,944.2,753.3z M938.6,754.7c0.6-2.8,0.5-4.3-1.3-5.7C936,750.9,936.9,752.3,938.6,754.7z"/>
		<path d="M926.4,711.5c0.1-0.5,0.4-2.1,1.1-3.5c1-2,3.7-2.2,5.3-0.5c2.2,2.3,2.8,6.6,1.3,9.4c-1.4,2.6-4.4,2.9-6.3,0.6
			C926.6,716.1,926.2,714.4,926.4,711.5z"/>
		<path class="st0" d="M990.9,333.8c1.5-1.1,3-2.4,4.5-3.4c5.1-3.3,10.3-6.5,15.3-9.9c9.6-6.5,20.2-8.6,31.5-8
			c3.8,0.2,7.6,0.6,11.5,1c1.1,0.1,2.2,0.4,3.2,0.8c3.4,1.5,6.7,2.9,10,4.6c3.5,1.7,6.3,4.5,8.3,7.8c1.8,2.8,2.2,6.3,1.9,9.7
			c-0.3,3.9-0.8,7.8-1.1,11.7c1.3,0.9,2.5,0.6,3.7,0.1c1.6-0.7,2.5-1.9,2-3.9c-0.4-2-0.2-3.8,0.2-5.7c1-4.7-0.4-9.2-1.8-13.6
			c-0.1-0.4-0.4-0.9-0.7-1.3c-3.4-3.8-6.6-7.9-11.5-9.9c-1.3-0.5-2.7-1.1-4-1.6c-2.3-1-4.6-2.3-7-3.1c-2.4-0.7-4.9-0.9-7.6-1.4
			c6.3,0,12.4-0.1,18.4,0.1c1.2,0,2.4,0.7,3.6,1.1c1.5,0.6,2.8,1.6,4.4,2c5.4,1.3,10.1,3.9,14.9,6.5c1.8,1,3.6,2.1,5.1,3.5
			c2.5,2.2,4.8,4.7,7.2,7c1.7,1.6,2.9,3.4,3.7,5.6c1.4,3.8,3.3,7.3,5.7,10.5c4.6,6.1,6.3,13.2,6.7,20.7c0.1,1.4-0.1,2.9,0,4.3
			c0.5,6-1,11.7-2.6,17.4c-0.9,3.1-2.6,5.9-4.7,8.3c-3,3.3-6.3,6.3-10.4,8.4c-5.5,2.7-11.2,4.8-17.3,5.6c-2.3,0.3-4.8,0.2-7.1-0.1
			c-3.5-0.4-7-0.9-10-3c-0.9-0.6-2-1.2-2.6-2c-2.9-4.1-5.3-8.4-5.4-13.6c-0.1-2.6,0-5.1,0-7.7c0-3.3,1.4-6.1,3.7-8.7
			c1.6,0.9,2.2,2.5,3,3.8c2.8,4.5,7.3,6.1,11.9,7.4c3,0.9,5.7-0.3,7.4-3.1c2.7-4.3,2.9-9,0.5-13.3c-3.4-6.2-9.1-9.3-16.2-9.3
			c-2.7,0-5,1.2-6.9,2.9c-1,1-2,2.1-2.8,3.2c-3.8,5.3-7.6,10.7-11.4,16c-3.4,4.9-7.5,9.1-12.1,12.9c-0.5,0.4-1,0.8-1.6,1.1
			c-4.2,1.8-8.4,3.9-12.8,4.9c-1.8-0.9-2.8-2.5-3.9-3.7c-6.6-7-14.5-10.8-24.1-11.3c-1.8-0.1-3.5-0.1-5.2-0.5
			c-3.7-0.7-7.3-0.7-10.9,0.2c-3.1,0.7-6.3,1.3-9.4,1.8c-4.2,0.7-8,2-11.5,4.6c-0.9,0.6-1.9,1-2.7,1.4c-1.6-0.8-1.6-2-1.3-3
			c1.6-4.5,3.3-9,5.2-13.4c0.5-1.1,1.6-2,2.7-2.6c2.5-1.5,4.8-3.2,6.8-5.3c2-2.1,4.4-3.8,7.1-4.8c5.8-2.2,11.6-4.6,17.9-5.2
			c2.7-0.3,5.4-0.9,8-1.3c11.2-1.5,21.3,0.9,30,8.3c1.1,0.9,1.8,2.1,2.7,3.3c0.5,0.6,0.6,1.5,1,2.1c0.5,0.9,1.4,1.4,2.4,1
			c1-0.3,1.5-1.2,1.6-2.2c0.1-2.8-1.1-5-3-6.8c-1.7-1.5-3.4-2.9-5.3-4.1c-8.9-6-18.7-8.1-29.2-6.6c-3.3,0.5-6.7,0.9-10,1.5
			c-7.5,1.2-14.5,3.7-21.3,7c-0.7,0.3-1.3,0.7-2.4,1.3c0.4-1,0.4-1.4,0.7-1.7c3.6-4.5,7.3-8.9,10.9-13.4c1-1.3,2-2.3,4-2
			c0.9,0.1,2.1-0.6,3-1.2c3.7-2.7,7.8-4.4,12.3-5.2c1.6-0.3,3.2-0.6,4.7-1.1c4.5-1.4,9.1-1.5,13.7-1.8c6.6-0.4,13.1,0.5,19.6,0.3
			c4.5-0.1,8.4,1.9,12.1,4.1c1,0.6,1.6,1.9,2.1,3.1c0.8,1.9,1.4,3.9,2.1,5.9c0.3,0.7,0.6,1.5,1.1,2.1c0.8,1.1,2.7,0.9,3.2-0.4
			c0.3-0.8,0.6-1.9,0.4-2.7c-0.9-2.9-1.9-5.8-3-8.6c-0.7-1.9-2.2-3.1-4-4c-4.9-2.5-9.8-4.8-15.5-4.1c-0.5,0.1-1,0.1-1.4,0
			c-6-1.1-12.1-0.6-18.2-0.6c-3.9,0-7.6,0.5-11.4,1.4c-4,1-8,1.9-12.1,2.8C991.2,334.3,991.1,334.1,990.9,333.8z"/>
		<path class="st0" d="M789.3,514.7c-1.8-0.6-3.6-1.3-5.8-2c-0.8-0.6-1.1-2.1-1.4-3.5c-1-4.8-2.8-9.5-1.4-14.6
			c0.1-0.5-0.3-1.2-0.5-1.8c-0.1-0.5-0.2-1.2-0.1-1.4c2.4-1.4,1.3-3.2,0.8-5c1.3-2.4,0.5-5,0.9-7.5c0.1-0.8,0.4-1.6,0.8-2.2
			c1.9-3.3,3.9-6.5,5.7-9.6c3.2-0.4,6.4,0.4,8.8-2.6c-2.2-1.4-5.1-0.8-6.5-3.1c-0.1-1.5,0.8-2.4,2-2.9c3.8-1.5,6.8-4.1,9.7-7
			c1-1.1,2.2-1.7,3.7-2c3.1-0.6,5.7-2.2,7-5.2c0.6-1.3,1.6-2,2.9-2.3c2-0.6,4-1.3,6-1.6c14-2.3,27,0.1,39,7.8
			c1.3,0.9,2.7,1.7,2.8,3.6c0.1,1.4,1.2,2.2,2.2,3c9.9,8.5,14.7,19.4,16.3,32.1c1.8,14.2-1.1,27.4-8.4,39.6
			c-3.7,6.1-8.4,11.3-14.5,15.1c-10.5,6.7-21.5,7.6-33,3c-0.7-0.3-1.4-0.7-2.2-0.9c-1-0.2-1.9,0.2-2.4,1.1c-0.5,1-0.3,1.9,0.5,2.6
			c0.6,0.5,1.3,0.9,2,1.3c2,1,4,1.9,6.2,2.9c-14.4-0.7-31.5-10.8-38.9-23c0.8-1.3,1.7-2.8,2.6-4.3c2.3,1.2,4.3,2.5,6.5,3.5
			c1.1,0.5,2.4,0.8,3.7,0.9c1,0.1,1.8-0.5,2.2-1.5c0.3-1.1-0.1-1.9-1-2.4c-1.1-0.6-2.3-1.1-3.5-1.7c-2.6-1.1-4.5-3-5.9-5.4
			c-3-5.4-4.2-11.4-4.7-17.5c-0.2-1.9,0.4-3.8,0.8-5.7c1.7-8.2,5.2-15.4,11.2-21.3c1.4-1.3,2.7-2.8,3.9-4.2c0.7-0.8,0.6-1.8-0.1-2.7
			c-0.7-0.8-1.7-1-2.6-0.6c-0.6,0.2-1.1,0.6-1.6,1c-9.3,8.2-14.8,18.3-16.3,30.6c-0.4,3.2-0.1,6.4,0.6,9.5
			C788.2,509.5,788.7,512.1,789.3,514.7L789.3,514.7z M827.3,504.2c0,0.1,0,0.2,0.1,0.3c0.6,0,1.3,0,1.9,0
			c5.8,0.1,10.7,1.6,13.5,7.3c0.6,1.3,1.6,2.4,2.6,3.3c0.7,0.7,1.8,0.7,2.6,0.1c0.9-0.6,1.2-1.6,0.8-2.5c-0.5-1.2-1.3-2.2-1.9-3.3
			c-3-6-7.9-9-14.4-9.7c-5-0.5-9.9-0.5-14.7,1.2c-1,0.4-2,0.9-2.9,1.6c-0.8,0.6-1.2,1.7-0.5,2.5c0.4,0.5,1.3,0.9,2,1
			c0.7,0.1,1.5-0.4,2.3-0.5C821.7,505.1,824.5,504.6,827.3,504.2z M875.7,475.4c-0.1-0.6-0.3-1.2-0.4-1.8c-0.8-3-2-5.7-3.6-8.3
			c-4-6.4-10.3-10.3-15.8-15.1c-0.7-0.6-1.7-0.8-2.7-0.9c-0.6-0.1-1.4,0-1.8,0.3c-0.6,0.4-1.1,1.2-1.2,1.8c-0.1,0.5,0.3,1.3,0.7,1.6
			c1.3,0.9,2.7,1.6,4,2.6c1.9,1.4,3.6,3.1,5.5,4.6c4.7,3.8,8.2,8.4,10.1,14.1c0.3,1,0.8,2.1,1.4,3c0.9,1.3,2.9,0.9,3.5-0.5
			C875.5,476.4,875.6,475.9,875.7,475.4z"/>
		<path class="st0" d="M938,472.6c-1,3-1.9,6.1-2.9,9.1c-2.6,7.4-3.4,14.9-2.4,22.6c0.6,4.9,1.7,9.8,2.5,14.6
			c0.9,5.3,3.6,9.9,5.6,14.8c0.4,1,1.3,1.8,2.1,2.6c4.1,3.6,8.1,7.2,12.4,10.5c3.7,2.8,7.6,5.3,11.6,7.7c2.8,1.7,6.2,1.3,9.4,1.6
			c1,0.1,1.8-0.6,2.1-1.6c0.3-1-0.3-2.4-1.3-2.8c-0.9-0.3-1.9-0.7-2.8-0.6c-3.4,0.2-6.1-1.4-8.9-3.1c-5.5-3.3-9.9-8-15-11.8
			c-4-3-6.5-6.8-8.1-11.4c-0.4-1.1-1-2-1.2-3.1c-1.3-6.6-2.8-13.1-3.6-19.8c-0.9-8.6,1.3-16.7,4.4-24.7c2.2-5.8,5.6-10.8,9.4-15.5
			c3.6-4.4,7.9-8.4,13.4-10.6c1.6-0.7,3.4-1,5.1-1.2c12.9-1.3,23.9,3,33.3,11.7c8.7,8.1,14,18.2,16.6,29.7
			c3.6,15.6,1.6,30.5-6.2,44.5c-2.8,5.1-6.5,9.4-11,13.2c-14.4,12.2-34.7,12.2-49.3,1.5c-4.7-3.5-8.7-7.6-11.9-12.4
			c-6.9-10-10.5-21.1-10.9-33.2c-0.3-8.7,0.8-17.2,4.1-25.4C935.5,477,936.9,474.8,938,472.6C938.1,472.6,938,472.6,938,472.6z
			 M991.8,503.2c0.6,0,1.3,0.2,1.9,0.1c1.1-0.1,2.3,0,3.2-0.5c0.6-0.2,1-1.2,1.1-1.9c0.1-0.5-0.5-1.1-0.9-1.5
			c-0.5-0.4-1.1-0.6-1.7-0.7c-4.5-0.9-8.9-1.1-13.1,0.8c-3.7,1.6-7,3.8-9.7,6.8c-1.5,1.6-2.4,3.4-2.8,5.4c-0.4,2,0,3.2,1.2,3.7
			c1.4,0.6,2.8-0.1,3.5-2.3c0.7-2.5,2.3-4.2,4.2-5.7C982.4,504.4,986.7,502.4,991.8,503.2z"/>
		<path class="st0" d="M829,424.9c1.1,2.8,0.1,4.9-2,6.8c-3.2,2.9-7,3.8-11.1,3c-1.1-0.2-2.2-0.7-3.1-1.2c-1.8-1.2-2.3-2.7-1.6-5
			c0.2-0.6,0.6-1.1,0.9-1.7c-0.3-0.4-0.6-1-1-1c-0.7-0.1-1.7-0.2-2.2,0.1c-0.9,0.6-1.6,1.5-2.4,2.5c-2.2-0.1-4.4-0.5-6.5,0.7
			c-1,0.5-2.3-0.5-2.4-1.7c-0.3-2.9-0.4-5.7-0.6-8.6c-0.1-1,0.2-1.9,0.1-2.9c-1.1-7.5,3.5-12.7,7.8-17.8c2.5-3.1,6.5-4,10.2-4.9
			c4.2-1,8.4-1.8,12.7-2.7c0.6-0.1,1.3-0.2,1.8-0.5c0.5-0.3,1.1-0.9,1.1-1.4c0-0.7-0.4-1.5-0.9-2c-0.4-0.4-1.1-0.5-1.8-0.6
			c-1.1-0.1-2.3-0.2-3.3,0c-5.4,1.2-11,2-16.2,4.3c-4.3,1.9-7.5,4.8-10,8.7c-1.6,2.6-3.1,5.2-4.6,7.9c-1.2,2-1.7,4.1-1.2,6.4
			c0.3,1.5,0.1,3.2,0,4.8c0,0.5-0.5,1-1,2.1c-1.7-2.9-3.1-5.4-4.6-7.8c-1-1.6-2-3.2-3.1-4.8c-0.3-0.4-0.7-0.7-0.9-1.1
			c-3-5.6-7.8-9.7-11.6-14.6c-0.8-1-1.7-2-2.6-2.8c-1.4-1.2-1.7-2.7-1.2-4.3c0.4-1.4,0.9-2.7,1.6-4c1.1-1.9,2.3-3.9,3.7-5.6
			c4.7-5.8,10.4-10.4,16.9-14c0.7-0.4,1.4-0.7,2.2-0.9c5.9-1.4,11.8-3,17.9-3.2c0.9,0,1.9,0.2,2.8,0.4c2.8,0.6,2.8,0.6,4.4-2.1
			c1.4-0.3,2,0.8,2.7,1.5c1.9,2.1,4,3.6,6.6,4.7c1.8,0.7,3.3,1.9,4.5,3.5c2.5,3.1,5.2,6,7,9.7c1.3,2.7,3.4,5,6.8,5.5
			c0.2,0.8,0.3,1.5,0.5,2.2c-0.4,0.3-0.6,0.7-0.8,0.7c-4.4,0.6-6.2,3.7-7,7.5c-1.4,6.5,0.8,11.2,6.8,14.3c0.9,0.5,1.9,1,2.9,1.5
			c-2.3,2.8-5.1,4.7-7.5,5.2c-3.4,0.7-5.4-1.1-5.8-3.5c-0.1-0.9-0.4-1.8-0.6-2.6c-1.2-0.5-1.7,0.1-2,0.8c-0.4,1-0.7,2.1-1.1,3.4
			c-1.1-1.3-2-2.6-3.1-3.7c-3.1-3.2-6.7-3-9.4,0.4c-2,2.5-2.9,5.3-3,8.4c-0.1,3.1,1.3,5.6,4,7.2c2,1.1,4.1,1.8,6.4,2
			C826.2,424,827.7,423.9,829,424.9z"/>
		<path class="st0" d="M728.4,394.9c0.7,0.5,1.2,0.7,1.5,1c0.5,0.6,0.9,1.3,1.4,1.9c4.5,6,5.7,12.7,4.7,20c-0.3,2.1-0.6,4.1-0.6,6.2
			c-0.1,2.3-0.6,4.4-1.5,6.5c-2.4,5.9-2.4,5.8-7.1,9.8c-1.9,1.6-4,2.5-6.5,2.5c-2.5,0-5.1,0.3-7.6,0.6c-3.4,0.4-6.6-0.1-9.8-1.7
			c-4.6-2.3-9-4.9-11.9-9.4c-0.6-0.9-1.4-1.8-2.2-2.5c-3-2.6-4.7-6-5.8-9.8c-0.2-0.6-0.4-1.2-0.6-1.8c-3.7-7.4-2.5-15.3-1.9-23.1
			c0-0.5,0.2-0.9,0.3-1.4c2.3-10.3,1.3-8.6,7.5-17.4c2.4-3.4,4.7-6.8,7.1-10.3c0.2-0.2,0.5-0.4,0.7-0.6c0.1,0.1,0.3,0.3,0.2,0.3
			c-2.3,4.8-2.3,10-2.5,15c-0.2,4.4,1.2,8.6,4.2,11.9c1.9,2.1,3.2,4.2,2.8,7.2c-0.3,2.6,0.9,5,2.3,7.2c2.1,3.2,5.1,4.8,9,4.1
			c2.9-0.5,5.6-1.3,7.8-3.3c0.9-0.9,2-1.7,3.1-2.2c3.5-1.8,5.1-4.7,5.1-8.6c0-0.3,0-0.6,0-1C728.2,396,728.3,395.7,728.4,394.9z"/>
		<path class="st0" d="M811.4,351.6c-0.9,0.2-1.9,0.6-2.8,0.5c-6.1-0.3-11.6,2.1-17.3,3.4c-3.4,0.8-6.5,2.7-9.3,4.9
			c-1.8,1.4-3.5,2.8-5.2,4.2c-6,4.6-10.2,10.5-13.1,17.4c-0.2,0.4-0.4,0.9-0.7,1.3c-0.1,0.1-0.2,0.2-0.6,0.6
			c-0.7-0.2-1.7-0.4-2.4-0.8c-4.1-2.6-8.9-3.6-13.3-5.4c-2-0.8-4.4-0.7-6.6-0.9c-2.1-0.2-4.2-0.1-6.2-0.2c-2.6-0.2-3.4-0.9-3.7-3.5
			c-0.4-3.1-0.3-6.1,1.1-8.9c2.8-5.6,6.2-10.9,10.7-15.2c4.6-4.5,10-8,15.7-10.9c2.1-1.1,4.3-1.4,6.5-0.8c1.5,0.4,2.8,0.4,3.9-0.9
			c0.9-1.1,2.2-1.2,3.5-1.1c5.7,0.5,11.3,1.2,16.8,3.3c6.1,2.4,11.8,5.6,17.6,8.5C808.1,348.2,810.1,349.4,811.4,351.6L811.4,351.6z
			"/>
		<path class="st0" d="M1001,430.7c-5.2,3.3-7,3.6-10.6,1.8c0.6-0.4,1-0.9,1.5-1.1c1.2-0.5,2.5-0.7,3.6-1.3c1.3-0.6,2.5-1.5,2.3-3.2
			c-2.1-1.8-4.6-0.5-7.2-0.9c-0.2-0.9-0.6-1.8-0.4-2.6c0.4-2.2,1-4.3,1.6-6.5c-0.6-0.9-1.5-1.9-1.9-3c-1.4-3.6-3.7-5.9-7.9-6.4
			c-0.3-0.9-0.6-1.7-0.9-2.6c-1.2-4.4-8.5-5.1-11-1.2c-1.4,2.2-2.3,4.5-2.7,7.1c-0.3,1.7-0.6,3.4-0.8,5.1c-2.1,1.4-4.1,1.2-6.1,0.7
			c-0.6-1.3,0.4-1.9,1-2.6c3.2-4.1,2.7-8.7,1.4-13.2c-0.5-1.6-1.8-2.7-3.5-2.8c-1.8-0.2-3.2,0.7-3.9,2.3c-1,2.3-1.7,4.8-2.5,7.2
			c-0.4,1.2-0.7,2.4-1.1,3.6c0,0.1-0.3,0.1-0.4,0.2c-1.4-0.3-1.4-1.5-1.5-2.6c-0.1-1.3-0.1-2.6,0.9-3.6c1.6-1.4,2.8-3,3.3-5.1
			c0.2-0.7,0.8-1.4,1.4-1.9c4-3.2,8.2-6.1,13.6-6.7c0.2,0,0.3,0,0.5-0.1c8.9-2.7,18-2.1,27.1-1c7,0.8,12.7,4,17.6,8.9
			c0.7,0.7,1.2,1.8,1.8,2.9c-5.1,3.3-8.7,7.4-11.4,12.7C1002.2,420,1001.5,425.4,1001,430.7z"/>
		<path class="st0" d="M749.4,336.7c-2.1,1.7-3.5,2.9-5.1,4c-6.9,5-11.8,11.6-15.9,18.9c-2.1,3.7-3.2,7.6-2.9,11.9
			c0.1,1.6,0,3.2,0,5c-1.2,0.3-2.2,0.8-3.3,0.9c-3.8,0.3-7.1,1.8-10,4.3c-1.7,1.4-3.7,2.6-5.2,4.2c-1.5,1.6-2.7,3.5-4.3,5.5
			c-0.8-0.6-1.6-1.1-2.1-1.8c-1.9-2.7-2.7-5.7-2.6-9c0.5-11.9,5.7-21.8,13.4-30.5c0.2-0.2,0.4-0.5,0.7-0.7c4.2-2.3,7.3-6.1,11.6-8.3
			c2-1.1,4-1.9,6.3-1.8c3.9,0.3,7.6-0.5,11.2-2.1C743.7,336.3,746,336,749.4,336.7z"/>
		<path class="st0" d="M899.5,361c5.1,1.4,8.4,3.4,11.4,7c-0.7,1.1-1.4,2.4-2.1,3.6c-2.5,4.5-2.2,6.6,1.5,10.9
			c2.8-0.7,5.7-1.5,9-2.4c2.2,0.8,3.2,2.8,3.2,5.4c0,1.7-0.8,3.1-2.2,4c-3.1,2-6.4,2.9-9.9,2c-1.4-1.4-0.9-3.1-1-4.7
			c-0.6-5.2-5.2-9.5-10.3-9.7c-3.8-0.2-6,1.7-6.3,5.6c-0.2,1.9-0.2,3.8,0.7,5.7c0.3,0.7,0.6,1.5,0.9,2.2c-3,0.7-6-0.1-9.4-2.3
			c-2.6-1.7-3.5-2.8-4.1-5.5c2.4-1,5.5,0.2,7.8-2.3c-0.4-0.4-0.8-1.1-1.3-1.2c-2.5-0.5-5-1.1-7.5-1.3c-2.6-0.2-4.1,1.4-4.3,4.1
			c-0.1,2,0.5,3.8,1.6,5.4c1.5,2.3,3.5,4.2,6,5.4c2.6,1.2,5.3,2.1,8,3.1c1,0.4,2.1,0.6,3.3,0.9c0.2,2.3,0,4.7,0.7,6.7
			c0.8,2,2.5,3.6,4,5.6c-0.5,0.3-1,0.8-1.5,0.8c-2.4,0.3-4.8,0.5-7.4-0.2c-0.2-0.8-0.6-1.6-0.8-2.5c-1-4-5-7.1-9.1-6.9
			c-2.2,0.1-3.7,1.5-3.6,3.6c0.1,1.4,0.6,2.8,1.2,4.1c0.5,1.1,1.3,2.1,2,3.3c-1.6,1.9-3.6,2.3-5.7,2.4c-2,0.1-3.8-0.3-5.4-1.6
			c-3.3-2.5-4-7.4-1.3-10.6c3.2-3.7,4.5-8,4.5-12.8c0-1.3,0-2.6,0-3.8c-0.1-4.2-1.6-7.8-4.7-10.6c-0.6-0.5-1.1-1-2.2-2
			c2.1,0.2,3.4,0.5,4.8,0.4c1.4-0.1,2.9-0.2,4.2-0.8c2.3-1,2.6-4,0.4-5.4c-1.4-0.9-3-1.7-4.4-2.5c0.3-1.7,1.4-2.1,2.4-2.4
			c1.7-0.5,3.4-0.2,6.2,1c-0.3,1.3-0.7,2.7-1,4c-0.4,2.2,0.1,4.2,2.3,5.3c1,0.5,1.8,1.2,2.3,2.3c1.2,2.4,3.4,2.8,5.7,2.5
			c1.2-0.2,2.5-0.6,3.6-1.2c2.6-1.3,4.7-3.3,6.4-5.7C899.8,367.2,900.2,364.4,899.5,361z"/>
		<path class="st0" d="M1055.5,506.1c-0.7,0.1-1,0.3-1.3,0.2c-2.2-0.1-3.2,1.2-3.5,3.1c-0.2,1.3-0.3,2.5-0.4,3.8
			c-0.1,1.4-0.1,2.9-0.3,4.3c-0.5,3.4-1.8,4.4-5.2,3.8c-2.5-0.5-4.9-1.3-7-2.8c-0.1-5.2-0.1-5.2-4.2-7.7c-1.9-3.7,1.4-7.3,0.5-11.5
			c-0.9,0.3-1.7,0.4-2.2,0.8c-2.1,1.5-2.9,3.7-3.4,6.1c-0.3,1.2-0.4,2.5-0.7,3.8c-0.1,0.3-0.7,0.7-1.1,0.7c-0.3,0-0.9-0.5-1-0.8
			c-0.1-1.4-0.1-2.9-0.1-4.3c0.1-6.4-0.8-12.7-2.4-19c-0.4-1.4-0.8-2.7-1.3-4.7c2.1,0.8,3.5,1.7,4.3,3.2c1,1.8,2,3.6,3,5.4
			c2.6,4.5,6.8,6.6,11.6,7.7c0.7,0.2,1.5-0.1,2.5-0.2c-0.4-4.3-4.3-4.9-6.9-7.3c0.7-0.7,1.3-1.4,1.9-2c1-1,2.2-2,2.9-3.1
			c1.5-2.4,1-5.2-1.5-6.7c-2-1.2-4.2-2.5-6.5-2.9c-2.2-0.3-3.7-1.2-5.2-2.7c-0.9,0.7-1.6,1.2-2.4,1.7c0-2,0-3.9,0-5.8
			c1.2-0.4,1.6,0.4,2.1,0.9c1.6,1.4,3.4,2.5,5.5,2.7c1.2,0.1,2.9,0.2,3.6-0.5c2.2-2.1,4.9-2.2,7.4-3c0.6-0.2,1.2-0.4,1.7-0.6
			c5.3,2.1,7.2,6.1,7,11.4c-0.1,2.1-1,3.7-3.2,4.2c-0.5,0.1-0.9,0.2-1.4,0.4c-1.1,0.4-1.9,1.2-1.9,2.5c0,1.2,1.1,2.2,2.6,2.4
			c1,0.2,2.1,0.2,3.3,0.3c-3.1,2.6-4,5.1-2.8,8c1.2,3.1,3.8,3.4,6.8,3.1C1057.2,503.2,1056.2,504.5,1055.5,506.1z"/>
		<path class="st0" d="M1066.5,365.4c1.1-1.6,2.6-2.1,4.3-1.9c4.4,0.6,8.2,2.5,10.7,6.4c1.6,2.5,1.8,5.4,0.6,8.2
			c-0.8,1.9-2.3,2.7-4.3,2.1c-4.5-1.4-8-3.9-9.6-8.5C1067.5,369.6,1067.1,367.4,1066.5,365.4z"/>
		<path class="st0" d="M795,448.2c-1.5,1.5-2.9,3-4.4,4.4c-1.3,1.2-2.7,1.2-3.7-0.1c-0.8-1-1.7-2.1-2-3.2c-0.9-4.4-1-8.8,0.1-13
			c1.5-0.5,2.1,0.4,2.4,1.2c0.5,1.3,0.8,2.8,1.3,4.1c0.2,0.5,1,1,1.4,0.9c0.5-0.1,1.1-0.7,1.2-1.2c0.8-2.6,0.5-5.1-1-7.3
			c-0.7-1-1.5-2-2.5-3.2c0.9-0.1,1.5-0.2,2.1-0.2c4.4,0,4.9,0.5,4.7,5c0,0.5,0,1-0.1,1.4C793.8,440.7,793.9,444.3,795,448.2z"/>
		<path class="st0" d="M1013.4,435.6c5.5-4.2,5.5-4.2,6.8-9.7c1.5-0.7,2.4,0.3,3.3,1.2c1,1,2.2,2.2,2.4,3.4c0.5,2.7,0.2,5.5-2.1,7.5
			c-1.9,1.7-4.2,2.8-6.8,3.4c-1.9,0.4-3.2-0.4-3.6-2.2C1013.2,438,1013.4,436.9,1013.4,435.6z"/>
		<path class="st0" d="M831.7,643.1c-2.6,6.2-5.2,12.3-7.6,18.5c-1.9,4.9-3.7,9.9-5.4,14.8c-2,5.6-3.4,11.3-3.9,17.2
			c-0.2,2.4-0.7,4.7-1.2,7.1c-0.4-2.9-0.2-5.9,0.1-8.8c1.1-10.2,4.2-20,7.8-29.5c1.7-4.3,3.6-8.5,5.5-12.7
			C828.2,647.2,829.5,644.8,831.7,643.1z"/>
		<path class="st0" d="M862.7,398.1c-0.7,1.9-2.3,2.3-3.8,2.9c-1.2,0.5-2.5,0.6-3.6-0.1c-0.6-2.9-0.9-5.8-1.9-8.4
			c-1-2.6-2.7-5-4.1-7.6c0.5-0.7,1,0,1.5,0.3c0.9,0.6,1.8,1.4,2.8,1.8c1.8,0.6,2.9,1.8,3.6,3.5c0.9,2.4,2.4,4.5,4.4,6.1
			C862,397.1,862.3,397.6,862.7,398.1z"/>
		<path class="st0" d="M849,401.2c-3-0.5-5.2-1.7-6.4-4.1c-1.2-2.4-0.9-4.9,0.1-7.4c0.4-1.1,1.8-1.4,2.8-0.7
			C848.5,391.5,849.9,396,849,401.2z"/>
		<path class="st0" d="M1033.8,455.4c0.5,0.1,1.7,0.2,2.6,0.8c1.7,1.1,3.2,2.5,4.8,3.8c0.5,0.4,0.7,1,1,1.6c0.6,1.3,0.4,2.9-0.4,3.5
			c-0.9,0.6-2.3,0.4-3.3-0.8c-1.6-2.1-3.8-3.3-6.1-4.3c-1.5-0.7-1.8-1.4-1.5-2.5C1031.3,456.2,1032.1,455.5,1033.8,455.4z"/>
		<path class="st0" d="M764.9,481c-2.1,3.6-5.3,5.7-7.7,8.3c-1.8-0.3-2.3-1.3-2-2.5c0.7-3.3,2.3-6.2,4.7-8.7c0.7-0.8,1.8-0.7,2.6,0
			C763.3,478.9,764,480,764.9,481z"/>
		<path class="st0" d="M828.1,419c-2.7,0.1-4.5-0.2-6.3-0.9c-2-0.9-2.8-2.4-2.3-4.6c0.4-1.7,0.8-3.4,2.8-4.5
			c0.5,0.4,1.3,0.6,1.7,1.2C825.8,412.7,827.4,415.5,828.1,419z"/>
		<path class="st0" d="M766.2,500.4c3.1,0,5.9,0,9,0c0.1,1,0.2,1.8,0.3,2.9c-2.2,0.5-4.2,0.6-6.1,1.4c-1.5,0.6-2.7,0.5-4.1,0.2
			c-3-0.6-3.2-1.2-2.1-4.7c0.6,0.4,1.2,0.8,1.9,1.2C765.5,501,766,500.6,766.2,500.4z"/>
		<path class="st0" d="M906.6,397.3c0.6,4.5,0.6,4.5-1.5,8.2c-2,0-3.4-1.3-4.6-2.8c-1.1-1.4-0.9-3-0.1-4.5c0.7-1.3,1.9-1.7,3.2-1.5
			C904.6,396.8,905.5,397.1,906.6,397.3z"/>
		<path class="st0" d="M774.9,487.2c0.3,1.8,0.4,3.3-0.7,4.7c-2.5-1.1-4.9-2.1-7.3-3.2C767.7,484.8,769.2,484.5,774.9,487.2z"/>
		<path class="st0" d="M778.7,436.8c0.4,0.1,0.6,0.2,0.6,0.3c0,3.3,0,6.6-0.1,9.9c0,0.9-0.7,1.4-1.6,1.4c-0.9,0-1.6-0.5-1.6-1.4
			c-0.1-1.2-0.1-2.5,0.2-3.8C776.7,440.9,777.3,438.7,778.7,436.8z"/>
		<path class="st0" d="M904.3,387.5c0,1.7-1.9,2.8-3.4,2c-2-1-3.2-3.2-2.9-5.5c0.1-0.9,1.1-1.7,2.1-1.5
			C902.4,383,904.2,385.1,904.3,387.5z"/>
		<path class="st0" d="M862.2,377.3c1.6,0.1,2.5,1.2,3.3,2.4c0.7,1.2,1.7,2.4,0.9,3.9c-0.2,0.1-0.3,0.3-0.4,0.3
			C861.2,384.7,859.4,382.6,862.2,377.3z"/>
		<path class="st0" d="M927.5,382.4c-1.5-3.1-3.9-5.8-3.8-9.8c1.9-0.9,3.4-0.1,5.2,1C928.1,376.5,927,379.3,927.5,382.4
			C927.5,382.4,927.5,382.4,927.5,382.4z"/>
		<path class="st0" d="M985.4,422c0.2,1.1,0.4,1.6,0.4,2c0.1,3.5-2.5,3.8-4.8,2.9c-1-0.4-1.5-1.3-1.2-2.3c0.2-0.7,0.7-1.5,1.3-1.7
			C982.4,422.5,983.8,422.3,985.4,422z"/>
		<path class="st0" d="M861.8,388.8c1.6-0.4,2.9-0.7,4.4-1c1.2,2.2,0.5,4.1,0.1,6.4C863.6,393,862.6,391.2,861.8,388.8z"/>
		<path class="st0" d="M773,464.6c0.6-0.9,0.9-1.7,1.5-2c0.4-0.3,1.4-0.2,1.8,0.1c1.4,1,2.7,2.2,3.9,3.4c0.2,0.2,0.2,1,0.1,1.3
			c-0.3,0.7-1,0.6-1.6,0.3C777,466.8,775.3,465.9,773,464.6z"/>
		<path class="st0" d="M888.5,370.9c1.1-1.7,2.1-3.5,3.2-5.2c0.3-0.5,0.7-1.1,1.2-1.4c0.3-0.2,1-0.3,1.2-0.1
			c0.3,0.2,0.5,0.8,0.4,1.3c-0.3,1.9-1.7,3-3,4.2c-0.8,0.7-1.8,1.2-2.7,1.8C888.7,371.1,888.6,371,888.5,370.9z"/>
		<path class="st0" d="M772.4,517.7c2.1-0.7,3.7-1.2,5.7-1.8c-0.5,1.9-0.5,3.6-1.5,5.2C774.5,521,773.6,519.7,772.4,517.7z"/>
		<path class="st0" d="M803.3,441.5c-0.7,1.6-2,2.2-3.6,2.5c-1-2-0.6-3.8-0.3-6C801.4,438.9,802.6,440,803.3,441.5z"/>
		<path class="st0" d="M973.3,412.2c-0.2,0-0.5,0-0.5-0.1c-0.5-2.2,0.2-4,1.8-5.6c0.2-0.2,0.6-0.2,0.9-0.1c0.3,0.1,0.6,0.4,0.6,0.6
			c0.1,0.6,0.1,1.3-0.1,1.9C975.4,410.3,974.6,411.5,973.3,412.2z"/>
		<path class="st0" d="M789.3,514.8c0.9,1.7,1.8,3.3,2.7,5.2c-1.1,1.2-2.1,2.3-3.1,3.4c-1-0.5-0.9-1.1-0.6-1.7
			C789.4,519.5,789.8,517.2,789.3,514.8C789.3,514.7,789.3,514.8,789.3,514.8z"/>
		<path class="st0" d="M936.2,380c-0.4,0.5-0.6,1.4-1,1.4c-0.7,0.1-1.8-0.1-2-0.5c-0.4-0.7-0.5-1.7-0.4-2.6c0.1-0.4,0.8-0.9,1.3-1.1
			c0.3-0.1,0.9,0.3,1.1,0.6C935.6,378.4,935.9,379.1,936.2,380z"/>
		<path class="st0" d="M885.3,514.8c0.3-1.7,0.6-3.4,0.9-5.1c0.5-3,1-5.9,1.7-9.6C888,505.7,887.5,510.4,885.3,514.8L885.3,514.8z"
			/>
		<path class="st0" d="M855.7,375.8c0.9,2.3,0.8,3.9,0.1,5.5c-0.1,0.2-0.5,0.3-0.8,0.3c-0.3,0-0.6-0.3-0.7-0.5
			C853.6,379.3,853.8,377.7,855.7,375.8z"/>
		<path class="st0" d="M833.8,418.5c-0.6-1.4-1.1-2.5-1.9-4.2c1.3,0.5,2.1,0.9,2.9,1.2c0.7,0.3,1.5,0.6,2.2,0.9
			C836,417.7,836,417.7,833.8,418.5z"/>
		<path class="st0" d="M775.8,509.6c-0.5,1.9-1.8,2.4-3.2,2.5c-0.3,0-1-0.4-1-0.7c-0.1-0.6,0-1.4,0.4-1.7
			C773,508.8,774.2,508.9,775.8,509.6z"/>
		<path class="st0" d="M1028.8,519.1c1.9,0.8,3.6,1.5,5.6,2.3C1031.2,522.8,1030.2,522.4,1028.8,519.1z"/>
		<path class="st0" d="M981.7,416.6c0.1-0.6,0.2-1.1,0.3-1.5c0.3-0.7,0.7-1.6,1.6-1.4c0.5,0.1,0.9,0.8,1.1,1.4
			c0.3,0.9-0.2,1.5-1,1.9c-0.3,0.1-0.6,0.3-0.9,0.2C982.4,417.1,982.1,416.8,981.7,416.6z"/>
		<path class="st0" d="M1008.4,419.5c0.5-1.3,0.6-1.8,1-2.3c0.2-0.3,0.8-0.6,1.1-0.5c0.3,0.1,0.8,0.6,0.8,0.9c0,0.3-0.4,0.8-0.7,1
			C1010.2,418.9,1009.7,419,1008.4,419.5z"/>
		<path class="st0" d="M883,366.5c0.3-0.6,0.7-1.2,1.1-1.8c0.1-0.2,0.6-0.2,0.8-0.1c0.2,0.1,0.3,0.6,0.3,0.7
			c-0.4,0.6-0.9,1.1-1.3,1.7C883.5,366.8,883.2,366.6,883,366.5z"/>
		<path class="st0" d="M959,406.2c-0.3,1.7-0.4,2.6-0.6,3.5c-1.1-0.5-0.6-1.1-0.5-1.6C958.1,407.7,958.4,407.4,959,406.2z"/>
		<path class="st0" d="M915.1,373.6c0.2,1-0.5,1.1-1,1.3c-0.2,0.1-0.5-0.1-0.8-0.1c0.2-0.5,0.4-1.1,0.7-1.4
			C914.2,373.2,914.8,373.5,915.1,373.6z"/>
		<path class="st0" d="M882.4,522.5c0.1-1.8,0.7-3.4,1.9-4.8c0,0,0,0,0,0C884.2,519.5,883.7,521.1,882.4,522.5L882.4,522.5z"/>
		<path class="st0" d="M1008.1,430.3c-0.3-0.3-0.7-0.6-0.6-0.7c0.2-0.4,0.5-0.7,0.8-1c0.2,0.2,0.5,0.5,0.5,0.6
			C1008.6,429.5,1008.3,429.9,1008.1,430.3z"/>
		<path class="st0" d="M805.1,434.8c-0.2,0.1-0.4,0.3-0.4,0.2c-0.3-0.2-0.6-0.5-0.9-0.8c0.2-0.1,0.5-0.4,0.5-0.4
			C804.5,434.2,804.8,434.5,805.1,434.8z"/>
		<path class="st0" d="M1008,436.5c-0.3,0.3-0.5,0.4-0.7,0.6c-0.2-0.3-0.4-0.7-0.5-1c0,0,0.3-0.3,0.3-0.3
			C1007.4,436,1007.6,436.2,1008,436.5z"/>
		<path class="st0" d="M781.2,453.9c0.2,0.3,0.4,0.6,0.6,1c0,0-0.5,0.4-0.5,0.3c-0.3-0.3-0.5-0.6-0.7-0.9
			C780.7,454.2,780.8,454.1,781.2,453.9z"/>
		<path class="st0" d="M774.7,471.9c-0.3,0.1-0.6,0.3-0.7,0.2c-0.2-0.1-0.2-0.4-0.3-0.7c0.2-0.1,0.6-0.3,0.7-0.2
			C774.6,471.3,774.6,471.7,774.7,471.9z"/>
		<path class="st0" d="M878.6,529.2c0.7-0.9,1.3-1.9,2-2.8c0,0-0.1,0-0.1,0C879.8,527.3,879.2,528.2,878.6,529.2
			C878.5,529.1,878.6,529.2,878.6,529.2z"/>
		<path class="st0" d="M773.4,456.8c-0.1-0.2-0.2-0.4-0.2-0.6c0-0.1,0.3-0.2,0.3-0.2c0.2,0.1,0.4,0.3,0.5,0.5
			C773.8,456.6,773.6,456.7,773.4,456.8z"/>
		<path class="st0" d="M883.8,407.1c-0.1,0-0.4,0.1-0.4,0c-0.1-0.2-0.1-0.4-0.1-0.6c0.1,0.1,0.3,0.1,0.4,0.2
			C883.8,406.8,883.8,406.9,883.8,407.1z"/>
		<path class="st0" d="M885.3,514.8c-0.3,1-0.6,1.9-1,2.9c0,0,0,0,0,0C884.7,516.7,885,515.8,885.3,514.8
			C885.3,514.8,885.3,514.8,885.3,514.8z"/>
		<path class="st0" d="M811.3,351.6c0.1,0,0.3,0,0.4,0.1C811.6,351.7,811.5,351.6,811.3,351.6C811.4,351.6,811.3,351.6,811.3,351.6z
			"/>
		<path class="st0" d="M881.4,524.4c-0.3,0.6-0.6,1.3-0.9,1.9c0,0,0.1,0,0.1,0C880.8,525.7,881.2,525.1,881.4,524.4
			C881.5,524.5,881.4,524.4,881.4,524.4z"/>
		<path class="st0" d="M878.5,529.1c-0.1,0.2-0.2,0.4-0.3,0.6c0-0.1,0-0.2,0.1-0.3C878.4,529.4,878.5,529.3,878.5,529.1
			C878.6,529.2,878.5,529.1,878.5,529.1z"/>
		<path class="st0" d="M938.1,472.6c0.1-0.2,0.2-0.4,0.4-0.6c0,0.1,0,0.3-0.1,0.3C938.3,472.4,938.2,472.5,938.1,472.6
			C938,472.6,938.1,472.6,938.1,472.6z"/>
		<path class="st0" d="M882.4,522.4c-0.3,0.7-0.6,1.3-0.9,2c0,0,0.1,0.1,0.1,0.1C881.8,523.8,882.1,523.1,882.4,522.4
			C882.4,522.5,882.4,522.4,882.4,522.4z"/>
		<path class="st0" d="M167.2,507.1c-0.2-3.3-2.8-4.1-5.3-4.6c-2.2-0.5-4.4-0.5-6.5-1.5c-1.4-0.7-2.9,0.1-3.6,1.5
			c-0.4,0.9-0.8,1.8-0.9,2.7c-1,5.7-2,11.3-2.9,17c-0.4,2.3,1.2,3.6,3.5,3.1c0.6-0.1,1.2-0.5,1.8-0.6c1.9-0.4,3.8-0.5,5.9,0.1
			c-0.1,1,0,1.9-0.2,2.8c-0.6,2.5-1.2,5-2,7.4c-2.5,7.8-3.7,15.9-4.5,24c-0.4,4-0.7,8-0.7,11.9c0,2.5,0.5,5.1,0.8,7.6
			c0.8,8,1.1,16,2.6,23.8c0.3,1.8,0.7,3.8-0.3,5.9c-1.1,0.1-2.3,0.4-3.6,0.5c-3.7,0.3-7.3,0.4-11,0.8c-4.8,0.5-9.4,1.7-13.9,3.5
			c-5,2-10.3,3.4-15.4,5.2c-4.5,1.6-9,3.3-13.4,5.2c-4.7,2.1-9.1,4.6-13.8,6.8c-1.9,0.9-3.8,1.5-5.8,2.1c-5.2,1.5-10.5,1.3-15.7,1
			c-3.6-0.3-7.3-1.1-10.8-2.1c-1.9-0.6-3.5-2.1-5.1-3.4c-0.9-0.7-1.3-1.9-2.2-2.6c-2.7-2.1-3.3-4.9-3.5-8.1
			c-2.3-37.7,4.3-73.6,20.8-107.6c12.1-24.9,28.4-46.7,48.7-65.5c32.7-30.2,71-49.8,114-60.6c16.9-4.3,34.1-6.8,51.6-8
			c11.4-0.8,22.7-1,34-0.4c22.3,1.1,44.2,4.5,65.8,10.2c38.5,10.2,73.8,27,105.7,50.8c31.1,23.2,56.5,51.3,75.5,85.2
			c13.5,24.2,22.8,50,27.3,77.4c0.8,4.7,1.2,9.5,1.7,14.3c0.1,0.6-0.1,1.2-0.2,2.1c-2.3-0.2-4.2-1-5.7-2.4c-3-2.6-6.7-3.7-10.1-5.4
			c-1.6-0.8-3.7-0.7-5.6-1c-0.3,0-0.6,0-1,0.1c-7.8,0.5-7.9,0.4-14.2,5.6c-3.5,2.9-7.2,3.9-11.6,2.5c-4.3-1.4-8.5-2.6-12.9-3.8
			c-6.7-1.9-13.5-2.4-20.4-1.6c-2.7,0.3-5.4,0.7-8.1,0.1c-1.2-0.3-2.5,0-4.3,0c-0.7-0.9-1.7-2.1-2.8-3.4c2.3-2.4,2.6-5.2,2.9-8.1
			c0.5-4.8,1.4-9.5,2-14.3c0.3-2.8,0.4-5.7,0.3-8.6c0-3.4-0.4-6.7-0.5-10.1c-0.1-4.2-0.6-8.3-1.5-12.4c-0.9-4-1.4-8.2-2.4-12.2
			c-1-4.2-2.2-8.3-3.3-12.5c-0.2-0.6-0.3-1.2-0.4-1.7c1.2-1.6,2.8-1.7,4.3-2.1c2.2-0.7,3.2-2.2,2.8-4.3c-0.3-1.4-0.7-2.8-1.4-4.1
			c-1.9-3.9-2.5-7.8-1.6-12.1c0.6-2.8-0.9-4.4-3.7-4c-4.4,0.6-8.8,1.6-13.6,2.5c-0.4-0.4-1.1-1-1.7-1.7c-0.7-0.8-1.3-1.9-2.2-2.5
			c-3.8-3-6.1-7.4-9.6-10.7c-0.1-0.1-0.2-0.2-0.3-0.4c-1.8-4.7-5.8-7.5-8.9-11.1c-0.8-1-1.8-1.8-2.8-2.6c-1.8-1.3-3.7-2.6-5.5-3.8
			c-0.9-0.6-1.9-1.1-3-1.5c-0.9-0.4-1.9-0.5-2.7-0.9c-5.3-3.1-11.1-2.6-16.8-2.3c-4.8,0.3-9.5,1.1-14.3,1.6
			c-0.8,0.1-1.6,0.3-2.3,0.5c-4.6,1.4-9.2,2.5-14,3.2c-2,0.3-3.8,1.5-5.6,2.5c-2.5,1.5-4.8,3.2-7.2,4.8c-0.8,0.5-1.7,1-2.3,1.7
			c-7.8,7.6-16,14.8-20,25.4c-0.6,1.6-1.7,3.1-2.5,4.7c-0.7,1.4-1.5,2.8-2,4.3c-3.1,9.1-6.1,18.2-7.3,27.8c-0.2,1.7-0.3,3.5-0.5,5.3
			c-0.2,2-0.5,4.1-0.8,6c-2.3,1.4-4.6,1.2-6.8,1.1c-2.8-0.1-5.3,0.8-7.7,2.2c-2,1.2-2.9,3-2.5,5.3c0.4,2.7,0.9,5.4,1.3,8
			c0.5,3.2,0.8,6.3,1.3,9.5c0.3,2,0.8,4.1,1.3,6.1c0.8,3.1,1.4,6.2,1.5,9.8c-1.1-0.2-1.8-0.2-2.5-0.5c-0.7-0.3-1.4-0.7-2.1-1.2
			c-5.5-3.5-11.4-3.7-17.5-2.2c-2,0.5-4,0.8-6.3,1.3c-0.3-1.2-0.8-2-0.8-2.9c0-5.1,0-10.2,0.2-15.4c0.1-1.9,0.7-3.8,1.1-5.6
			c0.7-3.3-0.8-5.7-4-6.5c-1.5-0.4-3.6,0-4.4-1.5c-0.8-1.5-0.9-3.4-0.9-5.1c-0.2-12.3-3.1-24.1-8.3-35.2
			c-3.3-7.1-7.4-13.8-12.4-19.9c-1-1.2-2-2.5-2.8-3.9c-3.6-6-8.5-10.7-14.5-14.4c-0.3-0.2-0.5-0.4-0.8-0.5
			c-6.5-2.2-12.6-5.4-19.5-6.3c-1.6-0.2-3.2-0.5-4.7-0.9c-2.4-0.6-4.7-0.9-7.1-0.5c-1.6,0.3-3.2,0.2-4.8,0.1c-2.6-0.2-5.1,0.2-7.5,1
			c-2,0.7-3.9,1.5-6,1.8c-3.4,0.6-6.5,1.9-9.3,3.6c-3.7,2.3-7.3,4.7-10.9,7c-0.5,0.3-1.1,0.7-1.5,1.2c-4,4.7-8.7,8.9-11.5,14.6
			C169.5,504,168.2,505.5,167.2,507.1L167.2,507.1z"/>
		<path class="st0" d="M285.9,564c1.8,2.3,2,4.9,1.9,7.6c-0.4,11.2-0.6,22.4-1,33.5c-0.1,2.5-0.6,5-0.9,7.6
			c-3.2,1.3-6.1,0.9-9.1,0.1c-7.1-1.8-13.4-5.4-19.3-9.3c-6-3.9-11.2-8.8-14.7-15.5c-3.5-6.8-7.6-13.3-11.5-19.9
			c-0.2-0.3-0.4-0.5-0.5-0.8c-2.8-7-7-13.2-10.7-19.7c-1.1-1.9-2.2-3.9-3.5-5.7c-2.4-3.6-5-7.1-7.4-10.6
			c-5.1-7.5-12.1-12.7-20.2-16.5c-0.9-0.4-1.8-0.6-2.6-1.2c-3.2-2.2-6.6-3-10.4-2.8c-1.3,0.1-1.3-0.1-3.5-1.4
			c0.6-2.5,1.9-4.7,3.3-6.8c3.9-5.5,7.7-11,13.7-14.5c2.7-1.6,5.3-3.5,8.1-5.2c1.5-0.9,3.1-1.6,4.8-2.1c3-1,6.1-1.8,9.2-2.7
			c0.5-0.1,0.9-0.4,1.4-0.4c4.6-0.1,9.3-0.3,13.9,0c3.2,0.2,6.3,1.1,9.4,1.7c3.2,0.6,6.2,1.3,9,3c0.5,0.3,1.2,0.6,1.8,0.7
			c7.3,1.8,12.2,6.8,16.4,12.5c3.1,4.2,6.3,8.4,9.2,12.8c4.8,7.4,8.8,15.2,11.5,23.6c2.7,8.5,3.2,17.2,3.7,26
			C287.9,560.3,286.8,562,285.9,564z"/>
		<path class="st0" d="M350.9,597.8c-0.4-0.6-0.8-1.1-0.9-1.6c-0.5-3.5-1.1-6.9-1.5-10.4c-0.8-9.2-1.8-18.5-2.3-27.7
			c-0.6-11.1,1.1-22,4.2-32.6c0.9-3.2,2-6.4,3-9.6c0.1-0.3,0.1-0.6,0.3-0.9c3.5-7,6.1-14.6,11.2-20.6c4.7-5.6,9.5-11.2,15.9-15.1
			c0.9-0.6,2-1.1,2.8-1.9c3-2.8,6.5-3.9,10.5-4.2c1.3-0.1,2.6-0.3,3.8-0.7c9.5-3.4,19.4-3.8,29.3-3.9c2.1,0,4,0.7,6.1,1.2
			c4.8,1.2,8.4,4.4,12.5,6.9c0.9,0.6,1.6,1.6,2.3,2.4c0.9,0.9,1.6,2,2.7,2.7c1.7,1.3,3,2.8,3.8,4.8c0.3,0.7,0.7,1.5,1.2,2.1
			c3.1,3.6,6.2,7.3,9.5,10.7c2.3,2.4,4.1,5.2,6.1,7.7c-0.7,1.2-1.5,0.8-2.2,0.7c-3.3-0.9-6.6-0.9-9.9,0.2c-0.6,0.2-1.3,0.3-1.9,0.3
			c-3.6,0-6.9,0.9-9.7,3.4c-0.8,0.7-2,0.9-3.1,1.1c-2.4,0.4-4.6,1.4-6.7,2.5c-5.4,2.7-10.7,5.8-15.2,10c-0.8,0.8-1.7,1.4-2.7,2
			c-7,4.4-12.6,10.3-18.4,16.1c-1.3,1.3-2.4,3-3.7,4.4c-1.9,2.2-3.8,4.3-5.7,6.5c-0.6,0.7-1.4,1.4-1.9,2.1
			c-2.6,3.5-4.9,7.1-7.7,10.4c-3.3,3.9-6.3,7.9-10,11.5c-3.2,3.1-6.7,6-10.1,8.7c-3.1,2.4-6.1,5.2-10.4,5.7c-1.4,0.1-1.9,1.4-1.5,3
			C350.8,596.2,351.8,596.6,350.9,597.8z"/>
		<path class="st0" d="M160.8,608.3c-1-8.6-1.9-16.8-2.8-25.1c-0.3-2.9-0.7-5.7-0.9-8.6c-0.2-3.7-0.4-7.4-0.1-11
			c0.5-5.4,1-10.9,2.2-16.1c1.9-8.2,4.4-16.3,6.7-24.5c0.6-2,1.4-3.9,2.2-5.8c0.7-1.7,1.6-2.2,3.4-2c2.5,0.3,5.1,0.5,7.6,0.8
			c0.8,0.1,1.6,0.2,2.3,0.6c4.5,2.3,9.1,4.6,13.5,7.2c3.6,2.1,6.5,5.2,9,8.5c3.5,4.6,6.9,9.2,10.3,13.9c0.8,1.2,1.4,2.5,2.1,3.7
			c1.4,2.3,2.9,4.6,4.3,6.9c1,1.6,2.2,3.2,2.9,5c3.3,7.8,7.9,15,12.1,22.3c1.5,2.6,3.1,5.2,4.6,7.9c1.8,3.2,4.2,6,6.8,8.6
			c5.6,5.7,12.5,9.4,19.5,13c4.4,2.3,9.3,3.9,14.6,4.8c-2.4,1.8-4.6,3.3-6.7,4.9c-1.6,1.3-3.1,2.7-4.6,4.1c-2.7,2.5-5.8,4.2-9.4,4.2
			c-7.2,0-14.4,0.6-21.5-0.7c-1.7-0.3-3.4-0.7-5.1-1.1c-5.7-1.4-11.4-3-17.2-4.4c-5.2-1.2-10.1-2.8-15-5c-3.9-1.8-7.9-3.4-11.9-5
			c-1-0.4-2.1-0.6-3.2-0.9c-2.8-0.8-5.5-1.6-8.3-2.3c-2.5-0.6-4.9-1.2-7.5-1.6C167.4,610,164.2,609.7,160.8,608.3z"/>
		<path class="st0" d="M487.3,599.1c-0.7,0.5-1.5,1.2-2.5,2c-6.8-6.8-14.4-12.3-22.8-16.6c-8.4-4.4-17.3-7.5-26.6-9.3
			c-9.3-1.8-18.7-2.5-28.2-1.6c-9.4,0.9-18.5,3-28.1,6.8c1-3.1,2.6-4.6,3.9-6.3c3.4-4.4,6.8-8.8,10.3-13.3c0.3-0.4,0.5-0.8,0.8-1.2
			c4.8-5.4,9.4-10.8,14.3-16.1c4.3-4.5,8.9-8.8,14.2-12.2c1.2-0.8,2.4-1.6,3.5-2.6c4-3.6,8.4-6.3,13.2-8.7c2.2-1.1,4.2-2.2,6.7-2.5
			c2.1-0.3,4-1.2,5.6-2.6c1.4-1.2,3-1.8,4.8-1.8c0.8,0,1.7,0.1,2.4-0.2c4.8-1.9,9.5-0.4,14.2,0.1c1.4,0.1,2.4,0.8,3.1,2
			c1.1,1.9,2.3,3.9,3.3,5.9c3.8,7.6,6.1,15.8,7.5,24.2c0.5,3,1.2,6,1.7,9c0.5,3.2,0.9,6.3,1.1,9.5c0.3,4.5,0.6,8.9,0.6,13.4
			c0,3.2-0.4,6.4-0.8,9.5C488.8,590.7,488,594.8,487.3,599.1z"/>
		<path class="st0" d="M334.7,618c-0.6,0.4-1,1-1.6,1.1c-1.1,0.2-2.2,0.4-3.3,0.2c-7.1-1.1-14.3-1.3-21.3-3
			c-2.3-0.6-4.7-0.8-7.1-1.1c-1.6-0.2-2.4-0.8-2.4-2.5c-0.1-4.1-0.1-8.3,0-12.5c0-2,1.4-3.3,3.2-3.8c3.4-0.9,6.8-1.6,10.3-2.1
			c3.6-0.5,7,0.5,10,2.5c2.3,1.5,4.6,2.9,7,4.2c1.3,0.7,1.9,1.6,2.3,2.9c0.1,0.3,0.2,0.6,0.2,0.9c0.3,2.2,0.4,4.5,0.9,6.6
			C333.3,613.6,334,615.7,334.7,618z"/>
		<path class="st0" d="M340.9,558.5c0.2,1.2,0.5,2.2,0.6,3.3c0.5,6,1,12.1,1.5,18.1c0.4,4.6,0.9,9.2,1.4,13.8
			c0.3,2.4,0.8,4.7,1.3,7.1c0.4,1.8,0.1,3.4-1.1,4.9c-1.9,2.3-3.4,4.9-5.2,7.1c-1.7-0.6-1.9-1.8-1.9-2.9c-0.2-4.8-1.7-9.4-2.7-14.1
			c-1.4-6.5-2.6-13.2-3.7-19.8c-0.8-4.7-1.4-9.5-2.1-14.2c-0.3-2,0.4-3.3,2.3-3.6C334.4,558,337.6,557.8,340.9,558.5z"/>
		<path class="st0" d="M292.3,565.5c1.5,0.3,2.4,0.5,3.2,0.6c0.2,0.5,0.4,0.9,0.3,1.1c-1.4,7-0.5,14.1-1.2,21
			c-0.8,8.3-1,16.6-0.9,24.9c0,0.7-0.4,1.6-0.9,2c-0.5,0.4-1.4,0.2-2.3,0.4C291.1,598.9,291.7,582.5,292.3,565.5z"/>
		<path class="st0" d="M485.2,511.8c-3-0.2-5.1-1.5-7.1-3c-0.3-0.2-0.5-0.8-0.7-1.2c-0.3-0.8,0.1-1.8,0.8-2c2-0.3,4-0.5,6.2-0.8
			C485.1,507.3,485,509.4,485.2,511.8z"/>
		<path class="st0" d="M167.2,507.1c-0.4,0.8-0.9,1.7-1.2,2.3c-3.5,0.6-6.8,1.2-10,1.7c-1.1-0.7-0.8-1.7-0.2-2.5
			c0.4-0.6,1.2-1.2,1.8-1.2c1.6-0.1,3.2-0.2,4.7,0.3C164.1,508.2,165.6,508,167.2,507.1C167.2,507.1,167.2,507.1,167.2,507.1z"/>
		<path class="st0" d="M154.3,519.2c1.1-1.3,1.4-2.1,2-2.4c1.6-0.7,3.2-1.2,4.9-1.6c0.4-0.1,1.3,0.3,1.5,0.7c0.2,0.5,0,1.4-0.4,1.7
			c-0.8,0.7-1.8,1.3-2.8,1.5C158.1,519.4,156.7,519.2,154.3,519.2z"/>
		<path class="st0" d="M483.1,517.6c0.4,0.3,0.9,0.6,1.1,1c0.2,0.3,0,0.7,0,1.1c-0.3-0.1-0.6-0.1-0.8-0.3c-0.3-0.5-0.5-1-0.8-1.5
			C482.8,517.8,482.9,517.7,483.1,517.6z"/>
		<path class="st0" d="M938.6,754.7c-1.7-2.4-2.6-3.7-1.3-5.7C939.1,750.3,939.2,751.9,938.6,754.7z"/>
		<path d="M827.3,504.2c-2.8,0.5-5.7,0.9-8.5,1.4c-0.8,0.1-1.6,0.6-2.3,0.5c-0.7-0.1-1.5-0.5-2-1c-0.7-0.9-0.3-1.9,0.5-2.5
			c0.8-0.7,1.9-1.2,2.9-1.6c4.8-1.7,9.7-1.7,14.7-1.2c6.5,0.7,11.5,3.6,14.4,9.7c0.6,1.1,1.4,2.2,1.9,3.3c0.4,0.9,0.1,1.9-0.8,2.5
			c-0.9,0.6-1.9,0.6-2.6-0.1c-1-1-2-2.1-2.6-3.3c-2.8-5.7-7.7-7.2-13.5-7.3c-0.6,0-1.3,0-1.9,0C827.4,504.4,827.4,504.3,827.3,504.2
			z"/>
		<path d="M875.7,475.4c-0.1,0.5-0.2,1-0.4,1.4c-0.6,1.5-2.6,1.8-3.5,0.5c-0.6-0.9-1-2-1.4-3c-1.9-5.8-5.4-10.4-10.1-14.1
			c-1.9-1.5-3.6-3.1-5.5-4.6c-1.2-1-2.7-1.6-4-2.6c-0.4-0.3-0.8-1.1-0.7-1.6c0.2-0.7,0.7-1.4,1.2-1.8c0.4-0.3,1.2-0.4,1.8-0.3
			c0.9,0.2,2,0.3,2.7,0.9c5.5,4.8,11.8,8.7,15.8,15.1c1.6,2.6,2.9,5.3,3.6,8.3C875.5,474.2,875.6,474.8,875.7,475.4z"/>
		<path d="M991.8,503.2c-5.1-0.8-9.4,1.3-13.3,4.3c-1.9,1.5-3.4,3.2-4.2,5.7c-0.6,2.2-2.1,2.9-3.5,2.3c-1.2-0.5-1.6-1.7-1.2-3.7
			c0.4-2.1,1.3-3.9,2.8-5.4c2.8-3,6.1-5.2,9.7-6.8c4.3-1.9,8.7-1.7,13.1-0.8c0.6,0.1,1.3,0.4,1.7,0.7c0.5,0.4,1,1.1,0.9,1.5
			c-0.1,0.7-0.6,1.7-1.1,1.9c-1,0.4-2.1,0.4-3.2,0.5C993.1,503.3,992.4,503.2,991.8,503.2z"/>
	</g>
</g>
<g id="Layer_3_xA0_Image_1_">
	<g>
		<path d="M395.2,429c-2.3-0.3-3.8,0.6-5.4,1.3c-1.6,0.7-3.3,1.3-4.9,1.8c-1.5,0.4-2.6,0-3.3-1.3c-1.8-3.6-3.6-7.1-5.2-10.8
			c-0.8-1.9-0.3-2.7,1.6-3.8c0.8-0.5,1.7-0.9,2.4-1.5c5.5-4.6,12-6.5,18.9-7.3c3.8-0.4,6.9,1.3,9.8,3.2c1.9,1.2,2.5,3.3,2.4,5.5
			c-0.1,2.1-0.6,4.1-1.5,6c-1.8,3.9-3.5,7.8-5.3,11.8c1.3,1.2,2.8,1,4.1,1.2c1.2,0.3,2.5,0.4,3.8,0.4c1,0.1,1.9-0.1,2.9-0.1
			c3,0.1,4.8,1.8,5,4.7c0.1,0.9-0.1,1.9-0.1,2.9c0.1,1.9,0.2,3.8,0.3,5.7c0,1.2-1.3,2-2.4,1.6c-0.4-0.2-0.8-0.5-1.2-0.7
			c-2.6-1.3-5.3-2.1-8.2-2.5c-4.1-0.5-8.2-1.5-12.2-2.2c-1.2-0.2-2.5-0.2-3.8-0.3c-0.8,0-1.6,0.1-2.4,0.1c-2.7-0.1-3.8-1.6-3.1-4.1
			c0.8-3,2.2-5.6,4.5-7.8C393,431.8,394.4,431,395.2,429z M406.6,414.6c-3.4-2.7-6.9-3.2-10.7-2.1c-3.1,0.9-6.1,1.8-9.1,2.9
			c-2.6,1-4.6,2.8-5.1,5.9c1.1,1.9,1.8,4,3.6,5.8c1.3-0.5,2.4-1,3.6-1.4c2.3-0.7,4.6-1.5,6.9-2c2.2-0.4,3.6,0.9,4.1,3.1
			c0.4,2.3,0.1,4.5-1.6,6.2c-1.1,1.2-2.4,2.2-3.5,3.3c-0.9,0.9-1.9,1.7-1.6,3.4c7.3,1.8,14.7,3.6,22.2,4.3c0.7-1.4,1.3-2.6-0.1-3.9
			c-1.6-0.1-3.3-0.1-5-0.3c-1.7-0.2-3.5-0.5-5.2-0.8c-1.4-0.3-2.8-0.7-4.1-1.2c-1.8-0.7-2.3-2.1-1.5-3.9c0.2-0.4,0.5-0.8,0.7-1.3
			c2-4.2,4-8.3,6.1-12.5C407.1,418.5,407.3,416.6,406.6,414.6z"/>
		<path d="M231.5,441.9c1.3-0.1,2.1-0.3,2.9-0.3c1.9,0,3.5,1,4.1,2.8c0.8,2.3,1.4,4.6,1.8,6.9c0.3,1.7-0.6,2.7-2.4,2.9
			c-1.1,0.1-2.2,0.2-3.3,0.2c-6.6-0.4-13,1-19.4,2.4c-0.6,0.1-1.2,0.3-1.9,0.4c-1.7,0.2-2.8-0.7-3.1-2.3c-0.2-1.1-0.2-2.2-0.3-3.3
			c-0.2-1.9-1.6-3.9-0.3-5.5c1.1-1.4,3.1-2.1,4.7-3.2c1.7-1.2,3.5-2.3,5.1-3.6c0.8-0.6,0.9-1.6,0.2-2.5c-4.8,0.2-5.5-0.2-7.3-4.8
			c-0.6-1.5-1.3-2.9-2-4.3c-1.3-2.5-0.7-4.5,2-5.1c1.6-0.3,2.6-1.1,3.6-2.1c3.2-3.1,6.4-6.3,9.7-9.3c0.6-0.6,1.8-0.9,2.6-0.8
			c1.2,0.2,1.8,1.3,1.8,2.5c0.2,3.5,0.3,7,0.5,10.5C230.7,429.4,231.1,435.5,231.5,441.9z M214.8,451.7c2,0.6,3.7,0.2,5.4-0.3
			c3.1-0.9,6.2-1.3,9.5-1.2c1.4,0,2.9-0.1,4.3-0.2c0.3,0,0.5-0.3,1-0.7c-0.2-0.7-0.5-1.6-0.8-2.5c-1,0.1-1.8,0.2-2.6,0.2
			c-3.8-0.1-4.9-1.4-5.1-5.3c-0.3-7.2-0.6-14.3-1-21.5c0-0.4-0.3-0.8-0.5-1.4c-0.5,0.2-1,0.3-1.3,0.5c-2.1,2-4.2,3.9-6.2,6
			c-2.2,2.3-2.1,3,0.1,6.3c1.2-0.6,2.5-1.3,3.8-1.9c2.2-1.1,3.7,0,3.7,2.5c-0.1,2.7-0.2,5.4-0.3,8.1c0,1.2-0.6,2.1-1.7,2.7
			c-2.4,1.3-4.7,2.7-7,4C214.1,448.1,213.8,449.5,214.8,451.7z"/>
		<path d="M744.6,643.3c-1.4,0.9-2.1,1.3-2.8,1.9c-1.4,1.1-2.7,2.3-4.2,3.2c-1.8,1.2-3.9,1.4-5.9,0.5c-0.5-0.2-1-0.9-1-1.4
			c0-0.5,0.5-1.4,0.9-1.4c3.6-0.4,6-2.8,8.5-5c1.2-1,2.5-2,4-2.6c2.9-1.2,5.3,0.3,5.3,3.4c0,2-0.4,4.2-1.2,6c-1.4,3.4-3.2,6.6-5,9.8
			c-1.1,2.1-2.3,4.1-2.9,6.5c0.7-0.6,1.3-1.1,2-1.7c3.3-2.7,6.6-5.5,10-8.1c2.8-2.2,6.2-3.1,10.3-3.4c-0.4,0.8-0.6,1.4-1,1.7
			c-1.8,1.6-3.6,3.2-5.5,4.5c-5.2,3.5-9.9,7.6-14.1,12.1c-1.2,1.3-2.5,2.5-3.9,3.5c-1.2,0.9-2.6,1.3-4,0.4c-1.4-0.9-1.7-2.4-1.3-3.8
			c0.7-2.3,1.5-4.6,2.5-6.7c1.6-3.1,3.5-6.1,5.1-9.2c1.4-2.5,2.6-5.1,3.8-7.7C744.3,645.3,744.3,644.7,744.6,643.3z"/>
		<path d="M742.5,606.5c1.7,1.2,1.6,2.5,0.6,3.5c-1,0.9-2.4,1.7-3.7,2.1c-4.5,1.2-8.9,2.3-13.5,3.3c-2.8,0.6-4.3-0.8-4.2-3.7
			c0.1-2.2,0.5-4.4,1-6.6c0.6-2.3,1.4-4.6,2.2-6.8c0.6-1.7,1.1-3.3,1.1-5c-2.7-1.4-3.8-1.3-5.6,0.3c-0.8,0.7-1.5,1.7-2.3,2.4
			c-0.3,0.2-1,0.3-1.3,0.1c-0.5-0.3-1-0.9-1.1-1.4c-0.1-0.6,0.1-1.3,0.3-1.8c1.8-4,6.7-6.1,10.9-4.8c2.5,0.7,3.8,2.3,3.7,4.9
			c-0.1,2-0.7,4.1-1.3,6c-0.8,2.7-1.9,5.4-2.8,8.1c-0.3,1-0.4,2.1-0.6,3.2C729.2,610.9,735.7,609.4,742.5,606.5z"/>
		<path d="M1038.1,557.7c2.9-0.6,5-1.1,7.2-1.5c1.2-0.2,2.5-0.5,3.8-0.6c0.9-0.1,1.5,0.4,1.8,1.3c0.3,0.9-0.2,1.9-1.3,2.3
			c-0.4,0.2-0.9,0.3-1.4,0.4c-3.6,0.8-7.1,1.7-10.7,2.5c-0.8,0.2-1.6,0.4-2.3,0.4c-1.6,0.1-2.7-1.4-2.2-2.9
			c1.3-3.8,2.5-7.6,4.9-10.9c0.6-0.9,1.3-1.8,2.1-3c-2.6-0.8-4.3,0.3-6,1.4c-1.2,0.8-2.2,1.8-3.3,2.7c-0.7,0.5-1.5,0.7-2.2,0.2
			c-0.8-0.6-1.2-1.6-0.7-2.6c0.3-0.7,0.8-1.4,1.3-1.9c2.1-2,4.7-3.4,7.5-4c2.3-0.5,4.7-0.8,7.1-1.1c1.3-0.2,2.6,0.9,2.6,2.2
			c0,1.1-0.4,2.2-0.9,3.1c-0.6,1.1-1.7,1.9-2.5,2.9C1040.8,551.2,1038.9,553.7,1038.1,557.7z"/>
		<path d="M789.8,599.3c-3.3-1.2-6.2-0.6-9.2,0c-0.6,0.1-1.2,0.6-1.8,0.6c-0.6,0-1.4-0.2-1.6-0.6c-0.3-0.6-0.5-1.6-0.2-2.2
			c0.4-0.8,1.3-1.5,2.1-1.8c3.5-1.2,7.2-1.5,10.9-1.1c3,0.3,4.5,2.3,4.4,5.3c0,1.8-0.6,3.4-1.7,4.9c-1.1,1.5-2.3,3-3.5,4.6
			c-0.3,0.5-0.5,1.1-0.8,1.7c1.1,1.2,2.5,1.1,3.7,0.9c1.7-0.3,3.4-0.9,5-1.5c1.2-0.5,2.2-1.3,3.3-1.8c0.4-0.2,0.9-0.1,1.4-0.2
			c1.3,1.4,0.9,2.8-0.3,3.7c-1.8,1.3-3.8,2.4-5.8,3.2c-2.6,1-5.4,0.8-8.1,0.3c-3-0.5-4.3-2.8-3.4-5.7c0.4-1.3,1.2-2.6,2-3.8
			c0.8-1.3,1.9-2.6,2.7-3.9C789.6,601.3,789.6,600.3,789.8,599.3z"/>
		<path d="M1070.4,589.2c3.4-0.8,6.4-0.5,9.2-1.8c0.7-0.3,1.5-0.6,2.2-0.9c1-0.3,2.1,0.2,2.3,1.1c0.3,0.9-0.1,1.7-0.8,2
			c-1.9,0.9-3.7,1.7-5.7,2.4c-2.1,0.7-4.3,1-6.5,1.5c-0.8,0.2-1.6,0.3-2.4,0.3c-1.7,0-2.6-1-2.7-2.7c-0.1-2,0.5-3.8,1.5-5.5
			c1-1.8,2-3.6,2.9-5.5c0.7-1.4,1.3-2.9,0.4-4.7c-2,0.1-3.7,0.8-5.4,1.6c-0.7,0.3-1.4,0.8-2.2,1c-0.4,0.1-1.1,0-1.3-0.3
			c-0.3-0.5-0.7-1.2-0.5-1.7c0.2-0.7,0.6-1.5,1.2-1.9c2.8-2.1,6-2.9,9.4-3c1.8-0.1,3,1.1,3.2,2.9c0.3,2.2,0.2,4.5-0.7,6.6
			c-0.8,1.7-1.7,3.4-2.5,5.1C1071.6,586.7,1071.1,587.6,1070.4,589.2z"/>
		<path d="M1158.8,610.7c-2.5-0.4-4.1,0.2-5.8,0.6c-0.8,0.2-1.7-0.1-1.9-0.9c-0.2-0.7-0.2-1.7,0.2-2.2c1.3-1.9,8.3-3.1,10.3-1.8
			c0.7,0.5,1.2,1.5,1.4,2.3c0.3,1.6-0.1,3.2-0.9,4.6c-0.5,0.9-1,1.9-1.6,3.1c2.9,1,5.2,1,7-1.4c0.8-1,1.8-2,3.3-1.3
			c1,0.5,0.8,2.2-0.4,3.8c-1.6,2.2-3.7,3.5-6.5,3.4c-2.1-0.1-4.2,0-6.2-0.1c-3.6-0.2-4.3-1.6-2.4-4.5c0.7-1.1,1.5-2,2.3-3.1
			C1158,612.5,1158.3,611.8,1158.8,610.7z"/>
		<path d="M1118.6,570.1c3.6-1.1,6.8-0.5,9.4-2.6c0.7-0.5,1.5-0.3,2.1,0.4c0.6,0.7,0.5,1.5,0.1,2.2c-0.6,1.2-1.7,1.9-3,2.2
			c-3.1,0.7-6.2,1.4-9.4,1.8c-2.6,0.4-3.9-1.1-3.5-3.8c0.2-1.4,0.7-2.8,1.3-4.1c0.5-1.3,1.3-2.5,1.9-3.7c-0.7-1.1-1.5-0.3-2.2-0.3
			c-0.9,0-1.7-0.3-1.8-1.2c-0.1-0.6,0-1.4,0.3-1.8c2-2.1,4.5-3,7.4-2.5c1.3,0.2,2.2,1.4,2.3,2.7c0.1,1.5-0.6,2.8-1.5,3.9
			C1120.8,565.3,1119.3,567,1118.6,570.1z"/>
	</g>
</g>
</svg>
